<?xml version="1.0" encoding="UTF-8" standalone="no"?>
<?xml-stylesheet type="text/css" href="svg-stylesheet.css" ?><svg
   xmlns:dc="http://purl.org/dc/elements/1.1/"
   xmlns:cc="http://creativecommons.org/ns#"
   xmlns:rdf="http://www.w3.org/1999/02/22-rdf-syntax-ns#"
   xmlns:svg="http://www.w3.org/2000/svg"
   xmlns="http://www.w3.org/2000/svg"
   xmlns:sodipodi="http://sodipodi.sourceforge.net/DTD/sodipodi-0.dtd"
   xmlns:inkscape="http://www.inkscape.org/namespaces/inkscape"
   version="1.0"
   width="499.9917"
   height="485.21875"
   viewBox="0 0 499.99169 485.21875"
   id="svg2"
   xml:space="preserve"
   inkscape:version="0.48.1 r9760"
   sodipodi:docname="wahlkreise_halle.svg"><defs
   id="defs18" /><sodipodi:namedview
   pagecolor="#ffffff"
   bordercolor="#666666"
   borderopacity="1"
   objecttolerance="10"
   gridtolerance="10"
   guidetolerance="10"
   inkscape:pageopacity="0"
   inkscape:pageshadow="2"
   inkscape:window-width="1680"
   inkscape:window-height="993"
   id="namedview16"
   showgrid="false"
   inkscape:zoom="0.57293746"
   inkscape:cx="-129.62673"
   inkscape:cy="242.60938"
   inkscape:window-x="0"
   inkscape:window-y="0"
   inkscape:window-maximized="1"
   inkscape:current-layer="svg2" /><metadata
   id="metadata1078"><rdf:RDF><cc:Work
       rdf:about=""><dc:format>image/svg+xml</dc:format><dc:type
         rdf:resource="http://purl.org/dc/dcmitype/StillImage" /><dc:title /></cc:Work></rdf:RDF></metadata><path
   d="m 52.629868,80.12824 c -3.84116,0.38319 -7.68231,0.76638 -11.52348,1.14956 3.13935,3.35263 1.90515,5.46354 -2.10672,6.91525 -4.42649,0.77374 -1.74254,5.82247 -6.29784,6.0818 -2.85932,1.33464 -1.90383,5.26961 -6.58614,4.58946 -8.67119,0.88071 -17.3423697,1.76143 -26.01355972,2.64215 0.41159,6.63416 4.69052002,12.11272 9.35412002,16.5111 5.0809897,6.06726 9.5714297,12.54937 13.7391597,19.28304 5.548,7.44864 11.7794,14.28741 18.88441,20.28427 -5.08835,0.79689 -0.99844,4.46458 0.23224,7.26057 2.55237,4.573 5.10475,9.146 7.65712,13.719 -3.19482,0.0849 2.10792,4.76545 -3.93857,2.31379 -10.26693,-1.65243 -20.57017,-3.06733 -30.84507,-4.66854 0.37082,4.44375 0.74166,8.8875 1.11249,13.33125 3.413,-0.23608 7.25166,-2.50185 9.96066,0.61895 2.08631,1.7874 7.20681,3.84751 7.38489,5.53808 -4.64796,1.28134 -9.30282,1.19229 -13.9631,0.0256 -4.40235,-1.53974 -0.0401,4.8949 -0.23104,7.17862 1.19047,2.4468 0.28124,7.57578 3.99632,6.2908 1.02731,4.94227 2.35399,10.19992 3.49501,15.26136 9.99675,2.46657 19.94587,5.1484 29.97216,7.48145 -2.503,3.36235 -4.38603,6.28755 1.1465,3.98416 4.28152,-2.3401 5.48111,0.31056 5.81955,4.35575 1.98752,8.99997 5.20018,17.83817 4.74198,27.1764 -0.22875,3.38045 -0.7971,6.57536 0.87635,9.64913 0.21238,3.04858 5.94809,-0.0181 8.46935,0.47418 16.4471,-1.40101 32.813372,-3.4933 49.245912,-5.08034 -2.55125,4.02773 0.0483,5.10956 3.96786,5.35846 -2.60436,4.77472 3.98559,1.55006 6.48112,1.83086 4.57336,-1.14365 8.12013,-5.04659 12.27349,-7.31911 4.14386,-4.30205 9.07669,-8.40558 11.86649,-13.60802 -1.2411,-4.06384 1.97401,-5.85845 4.93636,-7.78179 2.70559,-1.9677 5.41118,-3.9354 8.11677,-5.90311 -0.52959,-3.87441 -0.0431,-6.5748 3.46949,-8.37269 2.27695,-2.97928 5.54448,-5.58638 7.21035,-8.79528 0,-3.77053 0,-7.54106 0,-11.31159 3.30631,-1.12832 6.28822,-3.14242 5.93324,-7.04302 0.15795,-4.8547 0.26495,-9.70113 -1.93018,-14.17398 -1.08993,-3.97853 -3.35441,-7.76645 -2.81641,-12.00916 -4.06928,3.02452 -8.84013,4.54681 -13.51483,6.24105 -4.93866,3.85052 -10.71029,6.42277 -16.70628,7.99873 -5.78048,0.25029 -11.50171,-0.6878 -17.24483,-1.18665 -5.59859,-5.53408 -11.43061,-10.92398 -15.42644,-17.79972 1.55999,-5.87846 4.35998,-11.57491 3.55995,-17.79973 4.64218,-3.60624 9.8341,-6.12591 15.46361,-7.78068 5.40651,-2.11579 11.03877,-3.55064 16.5759,-5.27246 -1.08586,-3.35306 0.43681,-8.25067 -3.4062,-9.97121 -4.61955,-0.98015 -0.37804,-6.77258 -4.51228,-7.63448 -5.21787,-0.99843 -2.76816,-8.31326 -7.35422,-10.16525 -4.16946,-0.75994 -1.88915,-7.2708 -4.80987,-7.65542 -13.33806,2.30431 -26.72821,4.18255 -40.245472,5.02123 -2.53748,-0.6304 -8.62904,2.61575 -8.49757,-0.92576 0.63031,-3.74442 -4.84655,-5.45312 -3.55995,-9.41631 -0.83987,-2.53511 2.05429,-8.80425 -2.21956,-7.90538 -4.80489,1.59058 -4.11515,-3.305 -4.80836,-6.56809 -2.5482,-1.97511 -4.75264,-4.05459 -4.06501,-7.90201 1.03666,-4.84275 -2.5666,-4.96481 -6.39933,-4.51629 -5.64017,0 -11.28039,3e-5 -16.92054,-1e-5 z"
   id="wk36"
   style="fill-opacity:1;stroke:#000000;stroke-width:1;stroke-opacity:1;stroke-miterlimit:4;stroke-dasharray:none" /><path
   d="m 223.00664,23.17838 c -5.43021,1.37627 -10.84704,2.80465 -16.27006,4.2089 2.554,4.51648 3.97406,10.45956 1.0754,15.11122 -2.21879,6.1063 -4.43758,12.2126 -6.65636,18.3189 -2.27389,-3.86245 -4.79535,-7.72763 -6.91594,-11.58838 1.37026,-2.41131 4.05531,-4.59821 3.81026,-7.58342 -0.5681,-2.02491 -3.07957,-2.10519 -4.76513,-2.32695 -1.64055,-1.39822 -4.28601,-1.27212 -5.61805,0.50063 -1.47781,1.5962 -2.37686,3.65424 -4.04201,5.08033 -2.4285,-0.82731 -4.88075,0.70995 -5.98741,2.85134 -0.89108,1.53137 -2.31315,3.13247 -4.28453,2.88722 -4.29057,1.8612 -8.24372,-1.77975 -12.46907,-2.06736 -4.69784,-1.56026 -10.66325,-3.00782 -14.87947,0.37083 -1.21599,1.17367 -2.30425,2.52017 -3.18911,3.95858 -1.37955,2.8868 1.11706,6.14391 -0.30594,8.96476 -3.42134,3.17996 -8.26381,5.4189 -13.02532,4.67243 -3.48119,-0.74724 -6.1594,-3.72905 -7.76859,-6.68678 -2.25308,-4.52767 -3.51928,-9.95608 -8.06876,-12.82377 -6.5179,-5.02212 -13.49032,-9.48223 -20.407512,-13.89283 -6.88323,-2.90914 -14.45495,-3.74298 -21.88237,-3.27698 -6.45013,-0.0504 -13.06993,-0.0548 -19.21815,2.08214 -0.8331,4.99194 -1.68235,9.98123 -2.52163,14.97216 -2.02711,-0.97701 -5.24036,-2.1245 -6.85103,0.13906 -1.64139,2.78433 0.0561,6.15556 -0.53777,9.15916 -0.1832,5.76354 -0.32385,11.52859 -0.56545,17.29012 -1.58611,-0.6223 -4.19452,-0.19997 -4.15327,1.92831 0.18388,2.75252 2.22771,5.5136 4.93201,6.26699 10.77394,-1.35745 21.71413,-1.03172 32.56793,-0.87145 0.10888,4.32475 0.28485,9.69434 4.37578,12.22805 -0.69615,2.30741 0.12412,5.21008 2.60506,5.98886 1.46045,0.67232 3.27882,0.67634 4.4592,1.85414 -0.10513,4.47561 -0.73787,9.90516 2.92027,13.22928 0.66789,0.81345 -0.14614,2.30344 0.68603,3.24474 1.74913,2.21778 4.98861,0.92567 7.31458,0.6953 3.902522,-0.49735 7.901852,-0.3854 11.835122,-0.90448 10.21866,-0.94757 20.53296,-2.69886 30.55975,-4.21294 -0.34594,3.9825 3.23723,6.4921 5.58096,9.11309 0.95392,0.97781 1.2838,2.19877 1.25153,3.52286 0.54868,3.40949 4.5508,4.15889 6.25773,6.7398 0.90151,1.2327 -0.74665,2.94547 0.79727,3.75462 2.8978,2.66148 5.90981,6.39156 4.86711,10.54078 -1.9542,2.47191 -5.58726,2.32512 -8.34469,3.18418 -3.47528,0.91588 -6.68288,2.59508 -10.13179,3.5927 -4.87986,1.73121 -10.07086,3.7834 -13.2849,8.05623 1.25804,6.26329 -3.22091,11.79975 -3.08715,18.00368 4.382,6.71955 9.70483,13.04504 16.29789,17.63286 7.92968,0.81131 16.62024,2.54948 24.01108,-1.32572 5.79791,-2.63135 10.83008,-7.21052 17.18787,-8.38069 1.3356,-0.90572 2.64931,-2.61475 4.39431,-2.40112 1.67451,1.66719 1.15826,4.53085 2.11371,6.59147 2.69573,6.91069 4.79398,14.87522 2.18789,22.07351 -2.58619,0.34322 -4.78886,2.50487 -4.92274,5.16378 -0.65106,3.585 1.10747,7.67773 -1.11248,10.87452 -1.88038,2.6497 -4.70904,4.48096 -6.49876,7.15697 -2.61798,0.60317 -3.214,3.55708 -3.11495,5.85908 0.0854,1.8248 -0.7826,3.9337 -2.86464,4.15327 -2.89481,3.34248 -8.52611,4.07761 -9.97527,8.64956 -0.20673,1.9574 -0.24925,4.02849 -1.56675,5.64585 -2.36456,3.09177 -5.43078,5.56821 -7.94624,8.49295 -3.94951,3.80327 -8.65258,6.75005 -13.49687,9.33458 -2.8209,-0.15611 -6.42655,0.0113 -8.11185,2.6236 -0.8808,1.8439 0.6724,4.2795 2.41965,4.75588 3.76588,0.26797 7.43826,-1.93863 11.15264,-1.09394 1.74003,0.73141 0.64628,3.18247 1.13102,4.59826 0.26813,4.25781 0.5012,8.51779 0.77874,12.77501 1.55212,-1.1013 4.64729,-2.89746 5.80346,-0.40791 1.21607,2.33467 1.95725,4.95201 4.03079,6.73492 2.89523,3.55538 6.84696,7.25706 11.82209,6.60559 1.86419,0.19577 3.89033,0.73127 5.7571,-0.0279 3.47478,-1.09846 5.39139,-4.50206 6.24845,-7.82447 1.32614,-2.89575 5.18036,-4.63303 4.92274,-8.16749 -0.51108,-3.1017 -3.98664,-4.14856 -5.16378,-6.89739 -1.72987,-2.81317 -2.21806,-6.81493 0.0556,-9.47463 3.29686,0.0636 5.40842,-3.22356 5.50678,-6.23918 0.105,-1.0122 0.046,-2.10407 -0.0371,-3.0686 3.80941,-2.29715 3.37261,-8.40894 7.95426,-9.79913 1.79102,-0.98122 4.15326,-0.24952 4.81149,1.75217 1.15022,2.57057 1.2811,5.4865 1.65018,8.26018 1.27627,-0.62422 2.72514,-2.11485 4.26451,-1.6131 0.56788,1.99768 -0.99285,4.00131 -1.85413,5.72001 -0.19732,0.90833 1.0948,1.80945 1.15883,2.91102 0.60388,3.40052 -2.75733,5.64531 -4.57044,7.98206 -0.9496,2.17936 1.69695,3.45486 3.19838,4.35722 1.17018,0.60607 3.00919,1.96707 1.69654,3.38381 -1.89435,1.77606 -4.14019,4.42633 -2.9759,7.19406 1.94164,3.45391 6.46481,3.80101 9.89845,4.83886 3.55115,0.83858 7.31653,2.19595 10.95135,1.39104 3.70669,-2.79206 5.90331,-7.12766 9.55808,-9.99383 6.64709,0 13.29417,3e-5 19.94126,0 -1.58633,-6.70407 -3.15703,-13.41185 -4.73733,-20.11737 12.4805,0.86205 24.94292,2.19281 37.46287,2.31765 3.52372,-3.31013 3.15725,-8.53588 3.79171,-12.92334 3.04693,0.88264 6.36869,-0.001 8.55686,-2.28059 0.86076,-0.77736 1.71198,-1.68363 2.9388,-1.19592 1.77415,0.32295 3.21071,-1.38428 2.81829,-3.09641 -0.40085,-2.67451 -1.45193,-5.30561 -2.29914,-7.81519 -2.60769,-4.36041 -5.89387,-9.3911 -11.2917,-10.33682 -1.01325,-0.16413 -2.07196,-0.10638 -3.0686,0.13906 -2.45671,-4.5612 -4.91358,-9.1223 -7.37019,-13.68354 -1.54675,0.83216 -4.1026,1.62359 -5.10815,-0.39864 -1.0633,-1.91751 -1.64961,-5.19326 -4.45921,-5.08961 -2.39009,1.04412 -5.22604,1.18683 -7.54706,-0.096 -2.22564,-0.88903 -4.22509,-2.926 -6.79339,-2.25874 -7.24827,0.61089 -14.95646,3.42904 -21.98212,0.38939 -1.86507,-0.80152 -4.51112,-0.3071 -5.72002,-2.3733 -1.65397,-3.18311 0.8896,-6.5596 0.61187,-9.85474 0.0821,-3.98495 0.0761,-8.61216 -2.89246,-11.63472 -3.11685,-0.373 -6.09092,-3.12435 -5.51606,-6.43386 0.13845,-1.41221 1.1692,-2.6936 0.0585,-4.01836 -1.63699,-4.08461 -3.64285,-8.969 -1.36564,-13.22512 -1.79692,-3.95404 -1.00215,-9.19925 -4.53337,-12.23733 -1.84354,-1.58105 -4.60289,-0.66096 -6.39678,-2.39183 -4.07935,-3.2521 -4.90574,-8.77241 -5.84981,-13.57229 -0.30281,-2.36756 -0.33953,-5.91173 2.49383,-6.69344 4.9705,-2.9152 10.44307,-5.10719 14.85164,-8.88133 -0.24213,-1.64208 0.15268,-3.92606 2.13225,-4.15326 2.64703,-0.36131 5.41764,-0.79695 7.44438,-2.66996 2.80753,-1.92664 7.79474,-1.86076 9.06673,1.87267 0.0159,1.48393 1.30274,2.76898 2.80903,2.64215 1.6037,-0.80335 0.53252,-3.03525 0.40146,-4.36202 -0.44956,-2.14439 -1.26431,-4.5405 -0.5498,-6.66082 -1.14808,-4.65678 -4.56481,-9.41004 -2.5309,-14.28615 1.98376,-2.67301 0.15301,-6.01115 -1.32456,-8.44359 -1.34987,-2.05018 -2.15003,-4.44697 -1.82748,-6.90867 -0.58765,-5.40794 -2.03606,-10.80855 -4.95981,-15.45425 1.01155,-8.85408 -5.35299,-16.10743 -7.03646,-24.39118 1.0687,-8.90302 2.14162,-17.80553 3.20766,-26.70887 -0.28121,0.0711 -0.56242,0.14215 -0.84364,0.21323 z"
   id="wk37"
   style="fill-opacity:1;stroke:#000000;stroke-width:1;stroke-opacity:1;stroke-miterlimit:4;stroke-dasharray:none" /><path
   d="m 310.72593,0.48372 c -6.76025,4.28456 -13.53,8.65609 -20.28428,12.88627 -2.72894,-2.34522 -6.57884,-0.57051 -9.496,0.34563 -3.83143,1.45476 -7.95066,1.70757 -11.99281,2.16792 -10.13049,0.68067 -20.5015,-0.75708 -30.40852,1.96419 -3.47469,-0.0297 -6.76146,-3.51834 -10.29047,-1.85414 -1.96585,1.17742 -2.21331,3.6975 -3.63411,5.35847 -2.91494,4.71337 -3.29102,10.37191 -3.62484,15.77872 -0.80326,6.45192 -2.78465,13.63749 0.65821,19.69094 1.74039,3.53634 3.29649,7.24192 4.44066,11.03212 0.70979,2.16664 0.50885,4.58603 0.50063,6.70271 5.96693,7.86071 2.95984,19.21569 9.24287,26.97772 -2.87511,4.71838 -1.60187,10.54684 0.3656,15.33267 1.05188,1.71235 0.2729,3.72612 0.86829,5.59676 0.28322,2.13943 1.01146,4.34328 0.93546,6.46547 -1.83399,-0.99953 -1.51319,-3.57945 -3.33745,-4.67244 -3.18691,-2.15837 -7.36071,-0.50545 -10.3461,1.22374 -1.02567,0.49212 -1.75663,1.74256 -2.97588,1.06612 -2.07504,-0.59034 -4.16414,0.78768 -4.71879,2.79975 -0.68689,2.42561 -2.17075,5.12325 -4.94127,5.377 -3.62649,3.3056 -9.63296,3.41691 -12.32075,7.83373 -1.28491,3.2015 -0.77377,6.86945 -0.1205,10.16995 1.03283,4.3519 3.39237,8.54331 7.2126,10.99505 2.84741,-0.51011 5.62637,1.31542 6.48021,4.05129 0.95555,2.47218 1.39984,5.10334 1.96539,7.64832 -1.50682,5.72555 0.20007,11.79563 2.92953,16.8634 -1.49925,1.19153 -2.41933,3.66396 -0.73237,5.12668 2.06474,2.2398 5.97426,2.72166 7.10135,5.78491 0.48952,3.19023 1.16258,6.45783 0.72311,9.73422 -0.2642,3.1529 -0.93698,6.26874 -1.50185,9.39122 6.77611,2.41974 14.15753,5.58344 21.43383,3.43016 4.1233,0.0283 8.35714,-2.21715 12.41346,-0.70458 1.26626,0.57369 2.12205,1.72824 2.74413,2.92954 3.13328,-0.9278 7.40404,-2.22756 9.91963,0.6026 0.95574,1.18335 1.29748,2.71194 1.51112,4.19035 2.20574,-1.00528 5.0603,-0.50131 6.26699,1.75216 2.27464,3.33966 2.95413,7.8188 6.12794,10.48515 3.20881,2.1322 8.29229,1.36135 10.39242,5.01545 2.47037,5.24797 6.12812,10.51173 11.91146,12.38131 4.43715,4.90053 7.60562,10.98849 12.59898,15.40542 4.47651,5.43772 10.30649,9.98219 15.23304,14.71013 -1.76645,1.00094 -1.74153,3.4678 -0.38938,4.80219 0.99076,1.55095 3.07485,2.53531 3.48579,4.38506 -0.74795,1.16851 -3.19823,0.31959 -2.66068,2.27132 -0.40577,8.04614 0.62528,16.07381 2.34547,23.9184 -4.94298,3.62491 -11.16206,5.71254 -14.84236,10.80959 3.74022,2.18148 3.85646,7.59295 7.63905,9.6786 2.70298,1.16849 5.01014,-1.39349 7.52781,-1.90974 6.26523,-1.85158 13.02969,-0.99651 19.4777,-1.0754 4.15695,0.94743 6.04971,5.11788 8.75153,7.9728 1.22495,1.54374 3.22166,1.96593 4.79293,2.99443 1.40375,1.36217 -0.51975,3.25221 -1.42765,4.29231 -1.30368,1.7692 -3.90491,3.10296 -4.0606,5.52533 0.14312,1.53516 1.97053,0.31049 3.04079,0.68605 3.73596,0.11325 7.59835,1.83251 11.30099,0.70458 2.09571,-1.0255 0.87032,-3.6876 0.40263,-5.31707 -1.60752,-5.19308 -4.65306,-10.96594 -2.15477,-16.38563 1.07519,-2.3644 0.93727,-5.20289 2.45671,-7.43509 1.45173,-2.65178 4.62366,-3.66904 7.48146,-3.4487 6.51467,-1.52725 10.53267,-8.01914 11.14217,-14.39521 0.7324,-4.99469 -1.3523,-9.80326 -1.1391,-14.78894 0.02,-4.38534 0.7405,-9.00236 3.1613,-12.71013 2.3332,-2.12991 5.7714,-0.51699 8.4242,0.0834 3.7262,0.98068 7.8899,1.63212 11.4735,-0.22101 3.6166,-1.5775 6.8143,-4.1425 10.6771,-5.18366 -0.8922,-4.37802 1.7287,-9.25986 -0.686,-13.32201 -1.6868,-2.67335 -5.3339,-1.49134 -7.6113,-3.10567 -0.8274,-1.21215 0.7803,-2.69844 1.2373,-3.78653 1.3853,-2.16656 2.7754,-4.94738 1.5624,-7.51444 -0.4299,-8.88289 -1.2941,-17.73701 -1.919,-26.6069 13.0763,0.79675 26.1089,2.62141 39.2335,2.39185 0.012,-1.58239 1.1935,-3.31023 2.9667,-2.82756 4.1936,0.72711 8.0596,3.68636 12.4691,3.04079 4.0029,-1.17419 6.5574,-5.2909 7.1012,-9.27998 0.5743,-2.92957 -2.2972,-5.18242 -5.0061,-5.12668 -2.3506,-0.34394 -5.3194,0.80665 -7.1941,-1.06613 -2.8103,-5.13738 -7.4476,-9.25963 -9.3634,-14.87019 0.031,-2.71599 0.142,-6.50685 3.0965,-7.63905 2.9916,-0.92108 5.6216,1.42379 8.5699,1.4842 6.1825,1.14447 12.2111,3.51986 18.5654,3.54051 2.0877,0.81937 4.2802,-0.73241 4.6538,-2.83682 1.0927,-5.14467 0.3014,-10.4939 1.1312,-15.68603 0.2646,-2.53473 0.6966,-6.34763 -2.2529,-7.47217 -2.8146,-0.79585 -5.6674,0.80893 -8.5198,0.0649 -2.3391,-0.2083 -4.1241,-2.33459 -3.8843,-4.69098 0.3026,-3.29433 1.3108,-6.52647 1.1125,-9.89182 0.1293,-1.888 -0.9739,-4.43582 -3.2448,-4.03276 -2.078,0.21074 -3.6504,1.85936 -5.7107,2.01175 -3.7339,1.01985 -7.0675,3.61696 -10.9858,3.84733 -0.9126,0.0469 -1.26,-0.77527 -0.8066,-1.48331 0.6859,-1.84236 -0.7831,-3.938 -2.7813,-3.91223 -2.8751,-0.20793 -6.7122,1.43953 -6.9066,4.67243 0.055,1.96959 1.8499,3.30254 2.0397,5.28429 0.5916,2.07849 0.8462,5.43871 -1.78,6.17428 -2.6365,0.56332 -5.0187,-1.17941 -7.6795,-0.96732 -13.8624,-1.42721 -27.9465,-2.72495 -41.6685,-4.25207 1.9858,-1.20737 4.6023,-3.37534 3.7176,-5.99814 -1.3454,-2.49122 -4.7136,-2.04399 -7.0988,-1.93024 -6.4934,-0.86153 -12.98686,-1.72306 -19.48028,-2.5846 -0.77539,-6.26013 -1.3399,-12.54493 -2.1508,-18.80095 -1.37554,1.6139 -3.78099,2.88166 -5.73855,1.46477 -2.32366,-1.25632 -4.3938,-3.84477 -7.23113,-3.58776 -2.15597,1.15681 -5.24752,1.53839 -7.29605,0.0928 -0.64103,-1.0447 1.18397,-1.80826 1.87267,-2.28059 2.26801,-0.6413 4.71435,-1.58354 5.83129,-3.85661 2.03925,-3.68504 1.52466,-8.25277 3.17982,-12.0519 0.58829,-2.86647 -2.68982,-4.37046 -4.74658,-5.48351 -1.4009,-0.68729 -3.49537,-2.11614 -2.53092,-3.92623 1.8485,-3.62402 2.79764,-8.71275 -0.0834,-12.06118 -1.21139,-1.48135 -3.26839,-1.7507 -4.94126,-2.06736 -1.94486,-2.62149 -0.54738,-6.18046 -0.0556,-9.03892 1.20897,-4.22935 0.79124,-8.68656 1.78927,-12.9697 0.87022,-4.76375 2.09927,-9.45018 3.24474,-14.16562 -9.51348,-0.9706 -19.08467,-1.05216 -28.63715,-1.22372 1.02016,-1.94038 0.76915,-4.7498 -1.41844,-5.76638 -1.75947,-1.16235 -4.34208,-0.89539 -5.70146,-2.58652 0.56541,-3.12086 2.08519,-6.11761 3.77085,-8.82223 0.93232,-1.66674 2.55239,-2.82817 3.6426,-4.26612 3.41656,-8.73073 6.83376,-17.46127 10.27503,-26.18231 -3.29381,-3.64811 -5.33962,-9.21971 -10.52224,-10.58712 -2.23235,-0.48912 -5.61831,-0.5079 -6.41533,2.17861 -1.13822,4.26607 1.27412,8.60505 0.33375,12.88626 0.11988,0.67357 0.3212,2.47433 -0.91781,1.75217 -2.91897,-1.17565 -5.55939,-4.30528 -8.98328,-3.58777 -0.8492,0.11763 -1.42989,1.65777 -1.89123,0.29667 -2.9841,-4.54308 -4.44771,-9.91819 -7.1848,-14.61061 -0.17612,0.11125 -0.35226,0.2225 -0.52841,0.33374 z"
   id="wk38"
   style="fill-opacity:1;stroke:#000000;stroke-width:1;stroke-opacity:1;stroke-miterlimit:4;stroke-dasharray:none" /><path
   d="m 298.98923,259.20092 c 0.78431,1.6063 1.92821,4.2898 0.0279,5.54387 -1.45167,0.62335 -3.00134,0.0685 -4.43137,-0.29666 0.49839,1.46163 0.121,3.51468 -1.66872,3.69901 -2.18127,0.42525 -4.44295,0.0264 -6.65637,0.0556 -1.71325,4.2067 -0.26463,9.57772 -3.66193,13.06238 -12.86396,-0.17571 -25.66454,-1.58115 -38.49191,-2.42891 1.58558,6.74282 3.17053,13.48577 4.75587,20.22865 -6.57911,2e-5 -13.15821,2e-5 -19.73731,0 -2.5952,3.99264 -5.97858,7.32657 -9.38193,10.63349 -6.64383,-1.16733 -13.33252,-2.47947 -19.34795,-5.64583 0.46445,-3.48929 4.0535,-5.9978 3.69901,-9.65081 -0.37672,-1.97183 -3.00844,-1.70681 -4.15327,-3.09641 -1.42326,-0.94873 -0.72812,-2.85398 0.45426,-3.68045 1.39244,-1.2661 4.01741,-2.04869 3.77318,-4.37577 -0.1923,-1.98351 -2.49999,-3.94948 -0.97343,-5.90544 0.86064,-1.74049 2.37343,-3.95859 1.37206,-5.92398 -1.30918,-1.29547 -3.16882,0.21139 -4.30159,0.93634 -1.39564,-2.8764 -0.35378,-6.93319 -3.01298,-9.19652 -3.44614,-1.70424 -7.42981,0.49333 -9.28923,3.45796 -1.23489,1.60014 -1.88513,3.66602 -2.5309,5.45117 -2.18378,0.38099 -2.56677,2.89728 -2.14153,4.70951 0.42036,1.76723 -0.01,4.1257 -2.12299,4.46849 -3.63257,0.51821 -5.25894,4.63217 -4.57972,7.90789 0.31478,2.94001 2.07355,5.42776 4.38504,7.16623 1.59237,1.6365 3.23345,4.75291 1.13102,6.61001 -1.38027,0.6965 -2.46436,1.71738 -3.11948,3.17058 -1.68348,2.79771 -2.31923,6.90813 -5.66913,8.26946 -3.84797,0.85266 -8.23182,-1.61138 -11.76451,0.72311 -2.20128,1.30552 -1.57432,4.52217 -3.81026,5.81271 -3.07034,2.13185 -6.8612,0.18191 -10.23483,0.9549 -8.69806,1.3583 -15.81735,7.78292 -19.91925,15.32402 -3.08672,6.22065 -1.41616,14.82797 4.70604,18.514 4.40578,3.32647 9.87111,6.93056 15.66747,5.42337 5.6694,-2.30832 11.91461,0.078 16.77068,3.13346 7.32374,2.38075 15.21149,3.5395 21.45238,8.3344 4.76908,3.0608 10.74954,2.9357 15.80652,5.2194 4.87093,2.8218 5.81313,9.0194 5.30195,14.1828 -0.3222,2.7519 -1.0102,5.4689 -0.63426,8.28 0.16496,7.2551 0.97283,15.1406 5.8082,20.887 0.61116,2.9121 1.55509,6.8511 -1.03831,9.0574 -0.75249,0.7342 -2.30401,0.4426 -2.29914,1.7615 -0.62574,2.3493 -3.38275,4.4626 -5.72929,3.0037 -1.12952,-0.6944 -2.76148,-0.8609 -3.22619,-2.3734 -0.87145,-1.9576 -0.12175,-4.674 2.00246,-5.4418 2.83345,-2.9145 5.79963,-7.0138 4.44993,-11.2732 -1.0514,-4.2083 -5.84463,-6.3958 -9.88256,-5.8683 -3.25395,0.6098 -6.85854,2.8246 -7.32384,6.3318 -0.0232,3.4439 3.01112,6.7387 1.47405,10.1237 -1.36332,1.906 -3.57174,3.0592 -4.80223,5.1081 -1.86996,2.4601 -2.82762,6.1666 -0.68602,8.7794 2.40002,3.7521 8.01866,5.6545 11.77377,2.6885 1.91126,-0.8132 3.81951,-1.8532 5.59022,-3.0315 1.48746,-0.9072 3.71149,-1.6605 4.93201,0.1025 2.56142,2.3516 5.5716,5.8203 4.34795,9.5766 -0.3755,1.6012 -2.39367,1.3604 -3.43015,2.3734 -4.78777,2.8047 -6.81805,9.5293 -4.06983,14.453 2.68482,5.1272 9.96307,7.7693 14.95363,4.3386 4.41566,-3.636 8.95746,-8.638 15.17612,-8.4363 4.07801,0.3339 8.66515,0.8504 11.5142,4.181 1.78916,3.1233 5.80807,3.0535 8.95548,3.3098 2.20402,0.1507 5.31393,1.0072 5.60878,3.5784 1.13797,3.018 6.10341,1.9657 6.75832,5.3677 1.6087,1.8849 2.92174,4.7953 5.54387,5.4049 1.97383,0.1037 3.49835,-2.0419 3.68048,-3.7918 -0.49208,-3.3471 -3.83918,-5.2041 -5.71075,-7.7502 -0.51976,-1.2866 -2.35776,-1.9404 -2.3733,-3.3653 1.38244,-1.0302 3.49492,-0.1797 4.72805,0.8158 3.03932,1.9829 6.62382,3.1961 10.04016,4.4406 2.09124,0.5409 4.32144,1.5141 6.45481,1.2335 6.87884,-3.0036 13.62452,-7.5576 21.45925,-7.0925 3.59489,-0.071 7.23523,-1.872 10.79108,-0.6397 -0.66755,2.4817 1.51891,4.3187 2.26205,6.4061 0.21684,2.2124 -2.83742,2.6749 -2.911,4.8579 -0.36549,2.3898 1.11652,5.6346 3.81027,5.7107 1.80744,-0.024 2.06519,-2.4945 3.93078,-2.429 1.6533,-0.4006 4.09097,0.6891 5.1823,-1.0382 0.42208,-0.9069 -0.21642,-1.9539 -0.38012,-2.7257 3.32505,-1.2083 5.21162,-4.8426 4.68172,-8.2972 -0.13623,-1.1951 -0.90924,-3.1215 0.87145,-3.4395 2.60893,-0.8199 6.09993,0.4155 8.21383,-1.7429 0.45676,-1.2079 -0.26315,-2.7431 -0.0279,-4.1347 -0.13205,-0.9458 -0.0858,-1.5733 0.21321,-2.3733 0.19336,-0.9902 -0.77951,-0.7269 -1.27936,-1.0476 -1.49654,-1.3954 -4.04517,-0.5698 -5.21013,-2.5124 -1.7437,-2.3162 -2.63608,-5.9957 -5.97961,-6.5544 -1.65502,1.8702 -5.20815,2.4219 -6.98082,0.5099 0.1937,-1.1279 1.23296,-2.3081 1.63165,-3.4765 0.98584,-2.3745 2.95181,-5.0667 5.89616,-4.6539 0.53079,-0.5867 0.217,-2.2271 1.14956,-2.9758 1.83554,-1.7303 4.54002,-1.9515 6.73052,-3.0037 3.55087,-0.1706 5.27584,-3.6768 7.03644,-6.2392 1.8213,-2.0581 3.77197,-4.0903 5.20785,-6.5231 2.89521,-4.4903 5.53972,-9.2298 9.23592,-13.0937 1.89885,-2.8196 2.13164,-7.2033 5.70146,-8.5476 2.82461,-2.5349 2.30178,-6.9062 0.63165,-9.9459 -2.17728,-4.2011 -5.07968,-7.9548 -8.06675,-11.6177 -1.22732,-1.6518 -1.85458,-3.789 -1.10322,-5.7663 -0.21665,-3.1507 0.59026,-6.64341 3.38381,-8.46422 1.83133,-1.47252 3.37991,-3.32135 4.92273,-5.10814 1.21734,-1.31034 1.29967,-3.62946 -0.40792,-4.57047 -1.35945,-1.16289 -3.67516,-0.5269 -4.56117,-2.40109 -1.16883,-2.10761 -1.55638,-5.40991 -4.37577,-5.96107 -2.57944,-1.56882 -5.48822,-3.00534 -8.631,-2.96663 -5.34583,0.24845 -10.86976,-0.38747 -16.02607,1.32656 -2.23022,0.34878 -3.94962,2.24979 -6.22359,2.23339 -2.48086,-0.70807 -2.99207,-3.76984 -4.44994,-5.57167 -1.00627,-1.04149 -2.94012,-2.16946 -2.123,-3.91226 1.27233,-2.52303 4.25269,-3.1822 6.28557,-4.95053 2.54188,-1.63896 6.39137,-2.46662 7.33309,-5.72002 -0.1135,-2.74523 -1.11933,-5.48615 -1.35785,-8.27584 -0.69857,-5.05147 -0.95911,-10.19761 -0.72806,-15.30881 1.6106,0.15893 3.10575,-1.37467 2.45675,-2.97591 -0.59662,-2.16746 -2.71984,-3.85763 -4.19036,-5.01542 1.64265,-1.30778 1.58039,-3.86067 0.009,-5.21012 -4.41065,-3.8195 -8.9524,-7.5853 -12.84502,-12.02316 -3.06278,-3.42519 -6.25943,-6.83978 -9.25631,-10.2914 -1.2833,-3.73263 -4.16155,-6.77572 -7.53709,-8.72372 -1.95301,-0.52228 -3.90651,-1.04282 -5.85907,-1.56675 0.19779,0.39555 0.39554,0.7911 0.59332,1.18665 z"
   id="wk39"
   style="fill-opacity:1;stroke:#000000;stroke-width:1;stroke-opacity:1;stroke-miterlimit:4;stroke-dasharray:none" /><text
   x="77.916733"
   y="194.30371"
   id="wkt36"
   xml:space="preserve"
   style="font-size:18.98637581px;font-style:normal;font-variant:normal;font-weight:normal;font-stretch:normal;text-align:start;line-height:125%;letter-spacing:0px;word-spacing:0px;text-anchor:start;fill:#000000;fill-opacity:1;stroke:none;font-family:Ubuntu;-inkscape-font-specification:Ubuntu"><tspan
     x="77.916733"
     y="194.30371"
     id="tspan5239-6">36</tspan></text>

<text
   x="171.88884"
   y="117.06628"
   id="wkt37"
   xml:space="preserve"
   style="font-size:18.98637581px;font-style:normal;font-variant:normal;font-weight:normal;font-stretch:normal;text-align:start;line-height:125%;letter-spacing:0px;word-spacing:0px;text-anchor:start;fill:#000000;fill-opacity:1;stroke:none;font-family:Ubuntu;-inkscape-font-specification:Ubuntu"><tspan
     x="171.88884"
     y="117.06628"
     id="tspan5239-12">37</tspan></text>

<text
   x="301.26154"
   y="176.28162"
   id="wkt38"
   xml:space="preserve"
   style="font-size:18.98637581px;font-style:normal;font-variant:normal;font-weight:normal;font-stretch:normal;text-align:start;line-height:125%;letter-spacing:0px;word-spacing:0px;text-anchor:start;fill:#000000;fill-opacity:1;stroke:none;font-family:Ubuntu;-inkscape-font-specification:Ubuntu"><tspan
     x="301.26154"
     y="176.28162"
     id="tspan5239-1">38</tspan></text>

<text
   x="259.1944"
   y="379.52167"
   id="wkt39"
   xml:space="preserve"
   style="font-size:18.98637581px;font-style:normal;font-variant:normal;font-weight:normal;font-stretch:normal;text-align:start;line-height:125%;letter-spacing:0px;word-spacing:0px;text-anchor:start;fill:#000000;fill-opacity:1;stroke:none;font-family:Ubuntu;-inkscape-font-specification:Ubuntu"><tspan
     x="259.1944"
     y="379.52167"
     id="tspan5239">39</tspan></text>

</svg>