<?xml version="1.0" encoding="UTF-8" standalone="no"?>
<?xml-stylesheet type="text/css" href="svg-stylesheet.css" ?>
<svg
   xmlns:dc="http://purl.org/dc/elements/1.1/"
   xmlns:cc="http://creativecommons.org/ns#"
   xmlns:rdf="http://www.w3.org/1999/02/22-rdf-syntax-ns#"
   xmlns:svg="http://www.w3.org/2000/svg"
   xmlns="http://www.w3.org/2000/svg"
   version="1.0"
   width="613.9729"
   height="786.22021"
   viewBox="0 0 613.9729 786.22021"
   id="svg2"
   xml:space="preserve"><metadata
     id="metadata101"><rdf:RDF><cc:Work
         rdf:about=""><dc:format>image/svg+xml</dc:format><dc:type
           rdf:resource="http://purl.org/dc/dcmitype/StillImage" /><dc:title></dc:title><cc:license
           rdf:resource="http://creativecommons.org/licenses/by-sa/3.0/" /><dc:creator><cc:Agent><dc:title>NordNordWest, Christoph Giesel</dc:title></cc:Agent></dc:creator><dc:date>2010-09-23</dc:date><dc:relation>http://commons.wikimedia.org/wiki/File:Landkreise_Sachsen-Anhalt.svg</dc:relation><dc:language>de</dc:language><dc:source>http://www.stala.sachsen-anhalt.de/gk/navigation/lw/wkr/_lw.gif</dc:source></cc:Work><cc:License
         rdf:about="http://creativecommons.org/licenses/by-sa/3.0/"><cc:permits
           rdf:resource="http://creativecommons.org/ns#Reproduction" /><cc:permits
           rdf:resource="http://creativecommons.org/ns#Distribution" /><cc:requires
           rdf:resource="http://creativecommons.org/ns#Notice" /><cc:requires
           rdf:resource="http://creativecommons.org/ns#Attribution" /><cc:permits
           rdf:resource="http://creativecommons.org/ns#DerivativeWorks" /><cc:requires
           rdf:resource="http://creativecommons.org/ns#ShareAlike" /></cc:License></rdf:RDF></metadata><defs
     id="defs104" /><path
     d="m 211.05912,111.0311 2.00056,17.00476 -9.00253,5.0014 3.00085,14.00393 -33.00925,19.00532 -24.00672,-11.00308 -6.00169,-19.00533 13.00365,-17.00476 -8.00224,-17.00476 -16.00449,-3.000841 -28.00784,23.006441 -6.001683,-19.00532 9.002523,-3.00084 L 99.027737,87.024377 86.024095,88.024657 70.254156,74.372491 77.7092,73.8052 l 4.9947,0.3789 12.6718,-11.1367 1.1519,-8.8262 4.9904,-1.5381 15.744,-1.1533 1.543,-0.3779 0.768,5.373 3.836,1.5371 10.367,-4.2256 13.824,2.6836 3.073,2.6856 2.302,4.2265 5.377,-0.3847 5.76,-3.0664 5.76,3.8398 15.359,-9.2168 5.76,-1.5371 4.992,-5.374 1.535,-1.9219 1.537,-1.1455 5.76,-4.2285 3.79221,-0.574822 27.45891,17.193794 2.00056,16.004483 -35.00981,6.001681 1.00028,9.002521 11.00309,0 -3.00084,18.005043 13.29922,1.00028 z"
     id="wk01"
     style="fill-opacity:1;stroke:#000000;stroke-width:1;stroke-linecap:butt;stroke-linejoin:bevel;stroke-miterlimit:1;stroke-opacity:1;stroke-dasharray:none" /><path
     d="m 62.736796,74.955591 -17.2812,4.2246 -1.1543,13.0566 0.3828,3.8379 -0.3809,5.759299 7.2971,11.137 1.5369,13.825 6.9082,-1.536 1.5371,5.375 8.8321,13.442 7.2946,12.672 5.7598,8.832 8.834,-6.534 2.3066,0.769 -0.771,7.683 -5.375,8.064 -2.6894,5.378 3.8379,9.599 13.029154,16.944 25.39458,20.57987 39.01093,-1.00028 3.00084,6.00168 15.0042,-4.00112 16.00448,16.00448 25.00701,-8.00224 8.00226,-24.95229 -8.00222,-20.0603 3.00084,-29.00812 -46.42907,-1.90142 -8.58635,4.90226 -24.00672,-11.00308 -6.00169,-19.00533 13.00365,-17.00476 -8.00224,-17.00476 -16.00449,-3.000841 -28.00784,23.006441 -6.001683,-19.00532 9.002523,-3.00084 -9.002523,-13.003643 -13.003642,1.00028 -15.785519,-13.648216 z"
     id="wk02"
     style="fill-opacity:1;stroke:#000000;stroke-width:1;stroke-linecap:butt;stroke-linejoin:bevel;stroke-miterlimit:1;stroke-opacity:1;stroke-dasharray:none" /><path
     d="m 361.104,190.157 3.84,-12.672 4.609,-4.992 -1.921,-8.449 0.384,-3.456 -1.535,-7.296 7.678,2.689 7.299,-4.225 -0.002,-13.441 -9.6,-19.586 1.151,-2.301 -0.381,-1.92 3.833,-5.374 -3.452,-5.768 1.533,-2.301 1.921,-8.4444 5.762,-1.9248 0.768,-6.5283 -4.992,-18.8174 -7.682,-3.8379 -6.527,3.0713 -8.446,3.0723 -3.072,-7.2959 1.533,-5.376 -3.07,5.3808 -8.062,-3.8398 -6.53,0.3838 -9.6,0.3838 -5.375,3.8369 -4.992,-1.5342 -4.223,-3.456 -3.459,-0.7676 -0.767,0 -6.912,-0.7676 -4.609,-4.9934 -8.446,-0.3835 -3.072,-3.0723 4.992,-12.2881 -3.839,-2.3018 -9.985,-1.1503 -6.53,-8.834 -5.373,-1.541 -6.528,4.2275 -4.225,-1.5381 -0.77,-6.9082 -2.303,-3.0723 -8.447,1.1504 -1.92,-1.5342 3.071,-9.21577 -2.688,-1.92188 -7.682,1.92188 -8.829,14.20607 -9.985,-3.0723 -3.072,11.9014 -1.15,6.1455 3.072,6.9148 -3.8654,0.577039 27.43452,17.194533 2.00056,16.004483 -35.00981,6.001681 1.00028,9.002521 11.00309,0 -3.00084,18.005043 13.1358,0.96902 15.87232,16.03574 8.00224,-8.00224 4.00112,19.00532 16.00449,4.00112 0,-7.00196 17.00476,2.00056 6.00168,15.00421 11.00308,-9.00253 0,16.00449 15.0042,0 9.00253,-5.0014 3.00084,9.00252 -8.00224,38.01064 23.00644,-7.00196 4.00112,9.00252 18.00504,3.00084 0.89421,-3.9251 z"
     id="wk03"
     style="fill-opacity:1;stroke:#000000;stroke-width:1;stroke-linecap:butt;stroke-linejoin:bevel;stroke-miterlimit:1;stroke-opacity:1;stroke-dasharray:none" /><path
     d="m 318.08909,171.04791 -7.00196,-4.00112 -9.00252,15.0042 7.00196,8.00224 -35.0098,7.00196 -14.00393,-8.00224 -26.00728,23.00645 -8.00224,-20.00561 3.00084,-29.00812 -46.09502,-2.05235 7.58423,-4.44947 8.25232,-4.75133 8.25231,-4.75133 -3.00085,-14.00393 9.00253,-5.0014 -2.00056,-17.00476 14.1986,-3.95423 15.8098,15.95759 8.00224,-8.00224 4.00112,19.00532 16.00449,4.00112 0,-7.00196 17.00476,2.00056 6.00168,15.00421 11.00308,-9.00253 -0.0553,15.98239 15.07051,0.0276 z"
     id="wk04"
     style="fill-opacity:1;stroke:#000000;stroke-width:1;stroke-linecap:butt;stroke-linejoin:bevel;stroke-miterlimit:1;stroke-opacity:1;stroke-dasharray:none" /><path
     d="m 393.74201,273.099 0,-0.383 7.683,-15.359 -6.147,-6.528 5.377,-5.762 -3.84,-2.692 2.304,-3.834 -0.767,-4.993 -2.69,0.38 3.073,-13.819 3.455,-3.456 1.537,-6.149 -3.84,-5.377 4.225,-3.071 -14.978,-0.38 1.539,-2.31 -3.073,-6.526 -5.759,-0.384 -2.307,7.683 -8.445,1.153 -3.0529,-3.24647 -0.93329,4.01106 -18.00504,-3.00084 -4.00112,-9.00252 -23.00644,7.00196 8.00224,-38.01064 -3.00084,-9.00252 -8.98921,4.98853 -0.0133,16.01735 -7.00196,-4.00112 -9.00252,15.0042 7.00196,8.00224 -35.0098,7.00196 -14.00393,-8.00224 -26.00728,23.00645 -0.76283,3.35505 20.76842,1.64691 11.00309,19.00532 20.0056,-2.00056 8.00224,30.00841 14.00392,-13.00365 16.00449,29.00813 21.00588,-5.0014 3.00084,11.00308 11.00308,1.00028 -8.00224,10.0028 20.0056,-6.00168 17.84844,3.06402 z"
     id="wk05"
     style="fill-opacity:1;stroke:#000000;stroke-width:1;stroke-linecap:butt;stroke-linejoin:bevel;stroke-miterlimit:1;stroke-opacity:1;stroke-dasharray:none" /><path
     d="m 390.673,296.141 3.454,1.535 4.225,3.453 0.383,1.538 -10.366,6.914 1.918,0.378 -1.918,5.761 -6.144,8.064 9.6,13.06 4.94661,12.19553 -16.66514,4.05937 -14.00393,11.00308 -17.00476,-2.00056 -5.0014,7.00196 -15.0042,-4.00112 -1.00028,-7.00196 -21.00589,-8.00224 -10.0028,-14.00392 -25.007,9.00252 -7.00196,9.00252 -7.20913,-35.00981 6.20885,-2.00056 -5.00141,-13.00364 21.00589,-35.0098 -2.00056,-10.00281 14.94164,5.0487 14.06649,-13.05038 16.00449,29.00813 21.00588,-5.0014 3.00084,11.00308 11.00308,1.00028 -8.00224,10.0028 20.0056,-6.00168 17.86388,2.90796 z"
     id="wk06"
     style="fill-opacity:1;stroke:#000000;stroke-width:1;stroke-linecap:butt;stroke-linejoin:bevel;stroke-miterlimit:1;stroke-opacity:1;stroke-dasharray:none" /><path
     d="m 128.03583,228.06386 39.01093,-1.00028 3.00084,6.00168 15.0042,-4.00112 16.50463,16.00449 -12.50348,4.00113 3.00084,5.0014 29.00813,-6.00168 -4.00112,16.00449 -15.00421,7.00196 -2.00056,16.00448 8.00225,0 -6.00169,27.00756 -7.00196,9.00253 -10.0028,-2.00056 -7.00196,7.00196 -21.00588,3.00084 -38.28897,-20.03868 2.72998,-3.01406 -6.141,-4.988 -0.769,-6.527 -3.07,-4.995 -3.073,0.765 -3.84,-6.524 -0.001,-1.15 5.761,-4.229 -4.61,-7.293 -3.839,-5.374 -3.0722,0.382 -1.1504,-2.687 12.6716,-1.537 6.53,-3.456 1.533,-6.912 -1.533,-0.766 -16.13,-13.056 -4.6092,-5.765 -10.3672,-12.672 0,-4.221 3.4556,-8.83 1.9214,-0.77 11.50203,0.0245 z"
     id="wk07"
     style="fill-opacity:1;stroke:#000000;stroke-width:1;stroke-linecap:butt;stroke-linejoin:bevel;stroke-miterlimit:1;stroke-opacity:1;stroke-dasharray:none" /><path
     d="m 278.07789,259.07256 2.00056,10.00281 -21.00589,35.0098 5.00141,13.00364 -6.00169,2.00056 -11.00308,-13.00364 -3.00084,10.0028 -14.00392,8.00225 -10.0028,23.00644 -17.00477,-3.00084 -20.0056,-7.00196 -4.78259,-9.12847 6.78315,-6.87601 10.0028,2.00056 7.00196,-9.00253 6.00169,-27.00756 -8.00225,0 2.00056,-16.00448 15.00421,-7.00196 4.00112,-16.00449 -29.00813,6.00168 -3.00084,-5.0014 12.2534,-4.00114 24.75694,-8.00224 7.13459,-21.71068 20.87329,1.70566 11.00309,19.00532 20.0056,-2.00056 7.87709,30.10188 z"
     id="wk08"
     style="fill-opacity:1;stroke:#000000;stroke-width:1;stroke-linecap:butt;stroke-linejoin:bevel;stroke-miterlimit:1;stroke-opacity:1;stroke-dasharray:none" /><path
     d="m 178.15927,328.02893 -21.11528,3.06381 -38.07448,-20.20171 -6.69751,1.75697 -6.912,6.144 1.152,7.683 9.602,2.688 -1.539,8.448 -5.76,6.914 0,0.377 -11.9046,9.218 -7.6792,0.773 0,2.683 6.5288,3.454 0.3828,5.762 -1.531857,5.55278 16.420157,2.76028 12.00336,13.00365 9.00252,1.00028 7.00196,12.00336 0,17.00476 18.00505,9.00252 20.0056,0 8.00224,-12.00336 -9.00252,-7.00196 17.00476,-14.00392 -7.00196,-18.00505 -25.007,-18.00504 -15.0042,-2.00056 5.0014,-11.00308 7.00196,4.00112 9.00252,-5.0014 -6.00168,-8.00224 9.00252,-2.00056 10.0028,8.00224 3.29381,-5.14789 z"
     id="wk09"
     style="fill-opacity:1;stroke:#000000;stroke-width:1;stroke-linecap:butt;stroke-linejoin:bevel;stroke-miterlimit:1;stroke-opacity:1;stroke-dasharray:none" /><path
     d="m 220.06164,347.09722 -1.00028,17.00476 17.00476,1.00028 9.00252,14.00393 5.0014,-3.50099 5.0014,-3.50098 12.00337,4.00112 11.00308,-10.0028 -13.03398,-11.76586 -7.07521,-35.24731 -10.8995,-13.00364 -3.00084,10.0028 -14.00392,8.00225 -10.0028,23.00644"
     id="wkmd"
     style="fill-opacity:1;stroke:#000000;stroke-width:1;stroke-linecap:butt;stroke-linejoin:bevel;stroke-miterlimit:1;stroke-opacity:1;stroke-dasharray:none" /><path
     d="m 155.03562,434.11378 0.008,11.0109 -8.00224,-4.00112 -30.00841,11.00308 -28.007841,-5.0014 3.000841,-11.00309 -16.004483,-20.0056 -14.041395,-40.0244 1.520798,-0.0812 2.6914,-0.766 7.2947,-3.074 11.5217,-0.387 5.375,0 4.182577,0.55675 16.465023,2.76431 12.00336,13.00365 9.00252,1.00028 7.00196,12.00336 0,17.00476 17.99724,8.99471 4.78798,0.004 z"
     id="wk14"
     style="fill-opacity:1;stroke:#000000;stroke-width:1;stroke-linecap:butt;stroke-linejoin:bevel;stroke-miterlimit:1;stroke-opacity:1;stroke-dasharray:none" /><path
     d="m 110.03101,450.87629 -7.00196,-1.25035 -14.003921,-2.5007 3.000841,-11.00309 -16.004483,-20.0056 -14.065743,-40.02015 -1.527376,0.10508 -3.07235,0.1905 -0.3807,0 -8.8342,0 -4.2265,-0.381 -4.9864,-0.383 -6.916,0.383 -4.9902,1.537 -5.375,1.146 1.9201,5.766 -5.3772,5.374 -7.2968,1.921 -4.22464,-1.15 -4.98828,2.687 6.14257,8.447 7.68165,5.376 4.9922,1.536 2.3027,1.92 -1.5351,1.536 -7.2969,5.378 0,6.527 3.0723,1.153 4.2226,2.683 1.5332,7.301 -3.4551,4.992 -13.82223,13.435 2.5230555,2.93632 6.9630775,9.61824 7.001961,-15.0042 16.004483,-3.00084 2.00056,-11.00309 13.003642,-7.00196 17.004763,6.00168 4.001121,18.00505 -15.004203,18.00504 24.006724,13.00364 19.005328,-1.00028 5.0014,-11.00308 -6.00168,-7.00196 12.57683,-14.60947 z"
     id="wk15"
     style="fill-opacity:1;stroke:#000000;stroke-width:1;stroke-linecap:butt;stroke-linejoin:bevel;stroke-miterlimit:1;stroke-opacity:1;stroke-dasharray:none" /><path
     d="m 96.026896,527.14763 16.004484,12.00336 14.00392,1.00028 7.00196,10.0028 8.00224,-11.00308 14.00393,0 1.00028,-19.00532 -9.50266,-9.84654 -18.50519,2.8446 -37.010364,-12.00336 -12.003362,-2.00056 -5.032639,-18.89594 -2.969585,-1.60983 -12.003362,-6.50182 15.004203,-18.00504 -4.001121,-18.00505 -17.004763,-6.00168 -13.003642,7.00196 -2.00056,11.00309 -16.004483,3.00084 -7.001961,15.0042 -6.9029613,-9.53934 -2.2003797,2.7488 0.77148,16.897 4.22464,6.143 6.9121,3.073 6.1406,14.587 3.4592,3.459 1.1482,4.221 -1.5312,4.996 0.383,3.451 3.8377,7.681 4.2246,4.992 12.2852,-0.763 1.9238,-2.694 11.9023,3.461 4.6074,3.456 5.3789,-0.772 8.8304,8.064 0.3808,-0.381 4.6094,-1.919 1.561982,0.0148 z"
     id="wk16"
     style="fill-opacity:1;stroke:#000000;stroke-width:1;stroke-linecap:butt;stroke-linejoin:bevel;stroke-miterlimit:1;stroke-opacity:1;stroke-dasharray:none" /><path
     d="m 271.07593,426.11935 -12.00337,-12.00336 -8.00224,4.00112 -13.00364,-16.00448 -22.00616,1.00028 -17.00477,-15.0042 -8.5024,-0.46892 0.75023,1.96934 1.75049,4.50126 -17.00476,14.00392 9.00252,7.00196 -8.01005,12.04242 -0.99247,6.9629 8.00224,4.00113 8.00224,12.00336 17.00477,-2.00056 5.0014,12.00336 11.00308,5.0014 14.00392,-8.00224 9.12756,5.22021 14.61115,-25.9335 z"
     id="wk17"
     style="fill-opacity:1;stroke:#000000;stroke-width:1;stroke-linecap:butt;stroke-linejoin:bevel;stroke-miterlimit:1;stroke-opacity:1;stroke-dasharray:none" /><path
     d="m 209.05856,465.13028 11.00308,4.00112 23.00644,18.00504 3.00084,13.00365 -18.00504,7.00196 -16.00448,-11.00308 -18.00505,-8.00225 -1.00028,12.00337 -37.10504,22.81 0.0947,-2.80442 -9.25259,-9.92466 26.25735,-23.08457 -19.00532,-27.00756 7.00196,-8.00224 11.00308,1.00028 5.80557,-18.10466 2.19667,1.0999 4.00112,2.00056 8.00224,12.00336 17.00477,-2.00056 4.82463,11.88697 z"
     id="wk18"
     style="fill-opacity:1;stroke:#000000;stroke-width:1;stroke-linecap:butt;stroke-linejoin:bevel;stroke-miterlimit:1;stroke-opacity:1;stroke-dasharray:none" /><path
     d="m 255.07144,372.10422 12.00337,4.00112 10.82626,-10.14929 19.18214,3.14733 -1.00028,10.00281 11.00308,8.00224 -2.00056,15.0042 32.00897,31.00868 -12.00336,7.00197 -9.00253,-5.00141 -18.00504,14.00393 -6.00168,-10.0028 4.00112,-20.00561 -20.0056,-20.0056 -20.00561,-7.00196 -5.92844,-16.57603 z"
     id="wk19"
     style="fill-opacity:1;stroke:#000000;stroke-width:1;stroke-linecap:butt;stroke-linejoin:bevel;stroke-miterlimit:1;stroke-opacity:1;stroke-dasharray:none" /><path
     d="m 279.07817,434.12159 -4.00112,9.00253 -12.00336,-7.00197 8.00224,-10.0028 -12.00337,-12.00336 -8.00224,4.00112 -13.00364,-16.00448 -22.00616,1.00028 -17.00477,-15.0042 -8.50238,-0.50014 -1.00028,-2.5007 -3.50098,-9.00253 -25.007,-18.00504 -15.0042,-2.00056 5.0014,-11.00308 7.00196,4.00112 9.00252,-5.0014 -6.00168,-8.00224 9.00252,-2.00056 10.0028,8.00224 3.14732,-5.07464 19.85912,7.0752 16.98914,3.00475 -0.98465,17.00085 17.00476,1.00028 9.00252,14.00393 5.03802,-3.53669 5.96506,16.54033 20.00561,7.00196 20.0056,20.0056 -2.00056,10.00281 -1.02802,5.23629 z"
     id="wk20"
     style="fill-opacity:1;stroke:#000000;stroke-width:1;stroke-linecap:butt;stroke-linejoin:bevel;stroke-miterlimit:1;stroke-opacity:1;stroke-dasharray:none" /><path
     d="m 311.08713,477.13364 -13.00364,-9.00252 7.00196,-12.00336 -4.79823,-8.68993 -2.20375,1.68799 -6.00168,-10.0028 0.92392,-4.75896 -13.92754,-0.24247 -4.00112,9.00253 -12.13737,-6.85567 -14.74516,26.0798 -9.12756,-5.22021 -14.00392,8.00224 -11.09146,-5.05959 -4.91302,5.05959 11.00308,4.00112 23.00644,18.00504 3.10105,13.09204 15.90427,7.91385 5.00141,11.00308 6.00168,-5.0014 -16.00449,-17.00476 9.00253,-10.00281 28.00784,9.00253 0,-9.00253 11.14523,-3.14447 z"
     id="wk21"
     style="fill-opacity:1;stroke:#000000;stroke-width:1;stroke-linecap:butt;stroke-linejoin:bevel;stroke-miterlimit:1;stroke-opacity:1;stroke-dasharray:none" /><path
     d="m 294.08237,487.13644 0,9.00253 -28.00784,-9.00253 -9.00253,10.00281 16.00449,17.00476 -6.00168,5.0014 -5.00141,-11.00308 -16.17907,-7.82546 -2.82625,12.82686 33.00925,15.0042 1.00028,-7.00196 19.00532,1.00028 5.0014,-13.00364 15.0042,13.00364 19.00533,-1.00028 4.00112,-8.00224 13.00364,1.00028 4.00112,9.00252 15.0042,-13.00364 9.92963,-30.04564 -18.76025,-9.58614 -1.17218,8.62309 -10.0028,-11.00308 -8.00224,8.00224 -19.00532,-9.00252 -4.00113,18.00504 -15.0624,-1.08867 z"
     id="wk22"
     style="fill-opacity:1;stroke:#000000;stroke-width:1;stroke-linecap:butt;stroke-linejoin:bevel;stroke-miterlimit:1;stroke-opacity:1;stroke-dasharray:none" /><path
     d="m 272.07621,345.09666 25.007,-9.00252 10.0028,14.00392 21.00589,8.00224 1.00028,7.00196 15.0042,4.00112 5.0014,-7.00196 17.00476,2.00056 14.00393,-11.00308 17.55813,-4.08849 9.1354,5.88259 4.607,7.678 4.72179,6.46373 0.98804,13.0723 -35.0098,21.00588 -11.00309,16.00448 -10.0028,18.00504 5.0014,5.00141 -5.0014,37.01036 -10.0028,-11.00308 -8.00224,8.00224 -19.00532,-9.00252 -4.00113,18.00504 -15.0042,-1.00028 6.00168,-7.00196 -13.00364,-9.00252 7.00196,-12.00336 -4.81385,-8.68993 2.31315,-1.81301 4.50126,-3.50098 9.00252,-7.00197 9.00253,5.00141 12.00336,-7.00197 -32.00897,-31.00868 2.00056,-15.0042 -11.00308,-8.00224 1.00028,-10.00281 -19.15625,-3.1366 -12.86788,-11.74885 z"
     id="wk23"
     style="fill-opacity:1;stroke:#000000;stroke-width:1;stroke-linecap:butt;stroke-linejoin:bevel;stroke-miterlimit:1;stroke-opacity:1;stroke-dasharray:none" /><path
     d="m 476.303,390.989 -0.385,-3.074 3.842,-1.151 3.456,-0.384 1.918,-7.297 10.37,3.458 7.297,4.987 5.375,0.771 3.84,2.69 1.918,5.376 10.754,0 4.99,-1.538 2.305,11.52 10.752,2.302 3.84,-1.153 0.383,-3.072 9.599,1.154 -0.767,4.607 4.994,1.155 -0.3873,6.75414 -17.24457,4.02409 -6.00168,14.00392 3.00084,24.00673 -11.00308,7.00196 11.00308,9.00252 -18.00504,7.00196 3.00084,-12.00336 -5.0014,-19.00532 -33.00925,-7.00196 6.00168,12.00336 -22.00616,-5.0014 -15.88573,2.91243 -8.12099,-27.91944 15.0042,3.00084 11.70654,-38.90861 z"
     id="wk24"
     style="fill-opacity:1;stroke:#000000;stroke-width:1;stroke-linecap:butt;stroke-linejoin:bevel;stroke-miterlimit:1;stroke-opacity:1;stroke-dasharray:none" /><path
     d="m 576.91,417.867 0.002,11.137 8.834,0.767 0.766,-2.304 10.752,-3.839 4.23,3.839 0.763,4.61 -6.53,1.536 4.607,11.514 4.992,6.529 -0.382,3.844 -1.537,14.208 3.455,1.537 -1.536,4.603 7.3,7.301 -4.994,11.518 -25.729,17.656 -5.76,4.228 -3.455,-10.362 -6.529,-1.154 -3.458,1.92 1.155,4.608 -6.912,4.987 -3.457,-3.839 -5.76,1.541 -8.832,-4.223 -0.768,-5.762 0,0 -3.842,-3.453 -3.839,0.767 -3.84,4.99 -1.535,0.769 -7.682,7.681 -8.063,-3.072 -0.382,0 -10.369,-1.922 -5.76,11.52 -13.055,8.445 4.607,-5.376 -1.921,-0.768 -9.71937,0.6824 -7.59635,-13.38723 -12.00336,4.00112 -11.00308,-16.00448 -25.00701,7.00196 -5.0014,-15.00421 3.04505,-25.06507 3.95691,-1.94249 18.00504,8.00224 18.06443,-17.04896 15.9451,-2.95664 22.00616,5.0014 -6.00168,-12.00336 33.00925,7.00196 5.0014,19.00532 -3.00084,12.00336 18.00504,-7.00196 -11.00308,-9.00252 11.00308,-7.00196 -3.00084,-24.00673 6.00168,-14.00392 17.24572,-3.94716 z"
     id="wk25"
     style="fill-opacity:1;stroke:#000000;stroke-width:1;stroke-linecap:butt;stroke-linejoin:bevel;stroke-miterlimit:1;stroke-opacity:1;stroke-dasharray:none" /><path
     d="m 411.96894,491.02141 -15.85799,-22.89029 -15.0042,12.00336 -18.81585,-9.67262 1.35781,-9.82503 2.38058,-18.65947 12.07661,-5.85521 14.00393,16.00449 2.00056,11.00308 17.00476,5.0014 4.04532,-2.0296 z"
     id="wk26"
     style="fill-opacity:1;stroke:#000000;stroke-width:1;stroke-linecap:butt;stroke-linejoin:bevel;stroke-miterlimit:1;stroke-opacity:1;stroke-dasharray:none" /><path
     d="m 459.026,390.605 -1.154,-5.761 -8.447,-2.69 -3.842,-3.072 -13.44,-0.765 -11.517,-9.218 -4.55361,-0.22364 1.04444,13.23167 -35.0098,21.00588 -11.00309,16.00448 -10.0028,18.00504 4.85491,4.70844 12.14985,-5.70872 14.00393,16.00449 2.00056,11.00308 17.00476,5.0014 8.00224,-4.00112 18.00504,8.00224 18.00505,-17.00476 -8.00224,-28.00785 15.0042,3.00084 11.68044,-38.8802 z"
     id="wk27"
     style="fill-opacity:1;stroke:#000000;stroke-width:1;stroke-linecap:butt;stroke-linejoin:bevel;stroke-miterlimit:1;stroke-opacity:1;stroke-dasharray:none" /><path
     d="m 406.11379,505.14149 -6.00168,10.0028 11.00308,3.00084 -3.00084,6.00168 -6.00168,0 0,15.0042 -17.00476,1.00028 3.00084,-9.00252 -16.00449,5.0014 2.00056,10.0028 -29.00812,-3.00084 -2.64719,-19.94492 -7.32529,-2.03091 3.97076,-8.03257 13.00364,1.00028 4.00112,9.00252 15.0042,-13.00364 5.01347,-15.33683 z"
     id="wk28"
     style="fill-opacity:1;stroke:#000000;stroke-width:1;stroke-linecap:butt;stroke-linejoin:bevel;stroke-miterlimit:1;stroke-opacity:1;stroke-dasharray:none" /><path
     d="m 465.13028,511.14317 -12.00336,4.00112 -11.00308,-16.00448 -25.00701,7.00196 -5.00835,-14.90761 -15.99753,-23.10304 -15.10708,12.08418 -4.86659,14.61518 29.97651,10.31101 -6.00168,10.0028 11.00308,3.00084 -3.00084,6.00168 -6.00168,0 0,15.0042 -17.00476,1.00028 3.00084,-9.00252 -16.00449,5.0014 2.03088,9.79563 10.69955,16.56658 7.75731,-6.01938 1.92,-6.529 10.75,1.151 2.691,-2.304 9.981,-5.376 -0.766,-1.919 6.91,0.766 5.378,-1.917 7.678,1.918 4.993,-10.755 8.448,5.376 9.601,-4.605 0.768,0.384 10.754,-4.227 1.04412,-3.9024 z"
     id="wk29"
     style="fill-opacity:1;stroke:#000000;stroke-width:1;stroke-linecap:butt;stroke-linejoin:bevel;stroke-miterlimit:1;stroke-opacity:1;stroke-dasharray:none" /><path
     d="m 172.04819,453.12692 -11.00308,-1.00028 -7.00196,8.00224 19.00532,27.00756 -26.00728,23.00645 -19.00533,3.00084 -37.010364,-12.00336 -12.003362,-2.00056 -5.02483,-18.88813 3.024287,1.63327 6.001681,3.25091 19.005328,-1.00028 5.0014,-11.00308 -6.00168,-7.00196 12.55588,-14.60364 3.44877,0.59974 30.00841,-11.00308 8.00224,4.00112 -0.008,-11.0109 6.89925,-6.99607 5.11192,0.002 10.00442,-0.003 -1.0019,7.00453 1.61386,0.80693 z"
     id="wk30"
     style="fill-opacity:1;stroke:#000000;stroke-width:1;stroke-linecap:butt;stroke-linejoin:bevel;stroke-miterlimit:1;stroke-opacity:1;stroke-dasharray:none" /><path
     d="m 192.05379,578.16194 -13.00364,-11.00308 0.90112,-14.43373 -2.40154,-0.57048 -8.50238,-2.00056 -6.00168,-10.0028 -6.00168,6.00168 -12.67974,-7.00197 -3.32475,-10e-6 -8.00224,11.00308 -7.00196,-10.0028 -14.00392,-1.00028 -16.004484,-12.00336 -9.10283,10.19865 -9.216266,13.77072 3.4604,9.598 7.293,3.456 4.6098,3.457 -2.6875,0.383 -0.7675,5.76 2.687,4.993 -1.1538,1.919 3.0722,1.151 4.9898,5.762 -1.9136,8.06 2.3027,2.302 -1.1543,4.226 -0.3808,3.84 3.0688,0.382 0,1.543 6.148,3.835 13.435,-4.992 9.6,3.839 4.226,2.308 9.6,3.453 3.073,-1.536 6.144,0.389 4.992,-2.69 5.762,2.69 -0.385,2.691 1.533,-1.16 4.995,0.005 11.21292,-3.84816 z"
     id="wk31"
     style="fill-opacity:1;stroke:#000000;stroke-width:1;stroke-linecap:butt;stroke-linejoin:bevel;stroke-miterlimit:1;stroke-opacity:1;stroke-dasharray:none" /><path
     d="m 243.06808,513.14373 33.17308,15.0807 -11.16691,21.92966 -26.00729,-11.00308 -8.00224,8.00224 -15.0042,-8.00224 -10.0028,9.00252 -1.00028,13.00365 -9.00253,2.00056 -10.0028,-9.00253 -17.00476,-4.00112 -6.00168,-10.0028 -6.00168,6.00168 -12.6792,-7.00197 3.67667,-10e-6 7.00197,0 0.50014,-9.50266 0.25007,-4.75133 0.14021,-1.89612 37.12022,-22.86079 1.00028,-12.00337 18.00505,8.00225 16.00448,11.00308 17.87355,-6.93567 z"
     id="wk32"
     style="fill-opacity:1;stroke:#000000;stroke-width:1;stroke-linecap:butt;stroke-linejoin:bevel;stroke-miterlimit:1;stroke-opacity:1;stroke-dasharray:none" /><path
     d="m 273.07649,565.1583 -6.00168,12.00336 18.00504,15.0042 0,6.00168 -18.00504,7.00196 -15.00421,-14.00392 -32.00896,15.0042 -10.0028,-24.00672 -13.00365,-6.00168 1.54252,-13.56726 1.95847,-0.43666 4.50126,-1.00028 1.00028,-13.00365 10.0028,-9.00252 15.0042,8.00224 8.00224,-8.00224 26.19451,11.12794 z"
     id="wk33"
     style="fill-opacity:1;stroke:#000000;stroke-width:1;stroke-linecap:butt;stroke-linejoin:bevel;stroke-miterlimit:1;stroke-opacity:1;stroke-dasharray:none" /><path
     d="m 273.07649,565.1583 -6.00168,12.00336 18.00504,15.0042 0,6.00168 -9.00252,3.50098 -4.79552,1.90462 -0.20588,13.59973 28.00784,-11.00309 10.0028,-2.00056 6.00168,5.0014 3.98479,-9.73759 -0.98395,-11.26829 -15.0042,-7.00196 1.00028,-12.00336 4.00112,-8.00224 8.00224,5.0014 20.03686,-4.97029 -2.03181,-11.0342 11.00305,-6.8088 -2.64712,-20.13808 -7.51725,-2.04607 -18.84373,0.98511 -15.0042,-13.00364 -5.0014,13.00364 -19.00532,-1.00028 -0.6532,6.81924 -11.21236,22.03034 z"
     id="wk34"
     style="fill-opacity:1;stroke:#000000;stroke-width:1;stroke-linecap:butt;stroke-linejoin:bevel;stroke-miterlimit:1;stroke-opacity:1;stroke-dasharray:none" /><path
     d="m 384.143,572.232 3.457,1.156 -0.769,6.529 -11.518,8.448 -1.154,1.534 3.84,9.984 4.607,0.384 1.922,3.842 -4.225,4.219 1.155,12.676 3.837,5.371 0.768,7.686 -0.002,3.066 0.385,1.156 -4.221,0.764 -6.912,3.073 2.303,7.3 0.768,3.073 2.302,-0.384 0.7501,6.38265 -29.33748,12.69635 0,-15.00421 -20.9893,2.02819 2.98426,-7.02959 16.00448,-2.00056 -3.00084,-11.00308 4.00112,-9.00252 -11.00308,-11.00308 -18.99562,10.03732 -6.08464,-18.88355 4.14435,-10.10464 18.93535,11.9489 17.00476,-25.007 2.00056,-9.00252 -13.00364,-2.00056 -7.95537,-13.98851 -2.04743,-11.0185 11.28441,-6.9679 28.89671,2.99581 10.59764,16.39169 z"
     id="wk35"
     style="fill-opacity:1;stroke:#000000;stroke-width:1;stroke-linecap:butt;stroke-linejoin:bevel;stroke-miterlimit:1;stroke-opacity:1;stroke-dasharray:none" /><path
     d="m 344.09638,575.1611 13.00364,2.00056 -2.00056,9.00252 -17.00476,25.007 -19.00533,-12.00336 -1.00028,-11.00308 -15.0042,-7.00196 1.00028,-12.00336 4.00112,-8.00224 8.00224,5.0014 20.06811,-4.93918 z"
     id="wkhal"
     style="fill-opacity:1;stroke:#000000;stroke-width:1;stroke-linecap:butt;stroke-linejoin:bevel;stroke-miterlimit:1;stroke-opacity:1;stroke-dasharray:none" /><path
     d="m 340.09526,618.17315 11.00308,11.00308 -4.00112,9.00252 3.00084,11.00308 -16.00448,2.00056 -2.99255,7.05998 -9.01081,1.94254 -1.00028,14.00393 -10.04081,-6.03294 -12.96564,-10.97181 8.00224,-23.00644 14.55594,-5.71919 z"
     id="wk40"
     style="fill-opacity:1;stroke:#000000;stroke-width:1;stroke-linecap:butt;stroke-linejoin:bevel;stroke-miterlimit:1;stroke-opacity:1;stroke-dasharray:none" /><path
     d="m 196.05491,563.15776 -10.0028,-9.00253 -4.25119,-1.00028 -1.80007,-0.40246 -0.9507,14.40637 13.00364,11.00308 -10.59307,34.81556 6.07328,9.56352 2.307,-1.92 8.447,1.918 -0.385,6.528 0.385,2.688 1.918,3.84 0,1.534 6.911,1.918 -2.304,3.073 13.12228,13.51745 16.13028,2.5469 13.00364,-16.00448 20.00561,19.00532 16.00448,-7.00196 8.00224,15.0042 13.00364,5.00141 7.00196,-6.00169 -13.00364,-11.00308 8.00224,-23.00644 15.00421,-6.00168 -6.14818,-19.00534 -5.85519,-5.00141 -10.0028,2.00056 -28.00784,11.00309 0.19672,-13.61428 -4.19784,1.61091 -15.00421,-14.00392 -32.00896,15.0042 -10.0028,-24.00672 -13.00365,-6.00168 1.39643,-13.53551 z"
     id="wk41"
     style="fill-opacity:1;stroke:#000000;stroke-width:1;stroke-linecap:butt;stroke-linejoin:bevel;stroke-miterlimit:1;stroke-opacity:1;stroke-dasharray:none" /><path
     d="m 304.08519,674.18886 -13.00364,-5.00141 -8.00224,-15.0042 -16.00448,7.00196 -20.00561,-19.00532 -13.00364,16.00448 -16.27244,-2.56353 -2.99312,0.70716 -1.918,4.613 -0.385,2.687 -11.522,13.82 -2.687,-3.073 -4.99,6.145 1.533,3.461 9.601,4.227 4.225,-1.537 3.07,1.534 1.918,5.378 3.84,0.381 0.379,4.609 0.388,3.838 3.459,0.381 -2.685,1.156 -0.387,6.525 -4.994,0.768 3.072,6.142 -0.383,1.159 0.768,3.07 4.612,4.992 9.98,0 4.609,0.768 0.768,-3.073 6.912,-3.457 4.992,1.539 4.609,3.455 -0.765,3.073 5.371,-5.377 1.924,1.535 1.531,-1.152 3.072,-0.766 6.09567,4.29613 1.26354,-10.24425 10.0028,2.00056 3.00084,-14.00392 -10.0028,-10.0028 19.00532,-10.0028 6.00168,7.00196 13.00364,1.00028 2.00056,-12.00336 15.00421,-8.00224 5.0014,8.00224 16.91634,-9.86888 0.0884,-15.13813 -20.97134,2.05444 -9.03706,1.94668 -1.00028,14.00393 -9.9997,-5.9952 z"
     id="wk42"
     style="fill-opacity:1;stroke:#000000;stroke-width:1;stroke-linecap:butt;stroke-linejoin:bevel;stroke-miterlimit:1;stroke-opacity:1;stroke-dasharray:none" /><path
     d="m 367.06554,718.22326 -13.96664,10.98098 -8.00224,-2.00057 2.00056,9.00253 -16.78611,14.9829 1.60689,1.1449 6.528,4.606 0.385,0.381 -0.383,9.221 7.294,-0.385 3.073,8.447 13.826,-2.693 3.455,-1.149 9.217,4.225 8.063,1.916 1.536,-4.602 2.688,-1.92 2.303,3.455 5.759,10.748 2.305,-1.535 3.458,-7.677 -0.383,-4.608 5.758,-6.529 3.074,-5.381 2.302,-3.449 0.383,-0.77 -1.152,-7.679 -8.448,-1.151 0,-1.158 2.303,-2.301 -0.768,-6.142 5.763,-6.151 0,-2.681 -1.538,-3.457 -5.76,0.767 -7.297,-4.99 3.843,-6.91 -10.37725,-4.25364 z"
     id="wk43"
     style="fill-opacity:1;stroke:#000000;stroke-width:1;stroke-linecap:butt;stroke-linejoin:bevel;stroke-miterlimit:1;stroke-opacity:1;stroke-dasharray:none" /><path
     d="m 347.09722,736.2062 -2.00056,-9.00253 8.00224,2.00057 13.92937,-10.95888 -3.92657,-7.04616 -10.0028,3.00084 0,-12.00336 -10.0028,-3.00084 -11.00308,6.00168 -11.00308,-15.0042 -8.36661,3.30807 -12.63926,-1.30751 -6.00168,-7.00196 -19.00532,10.0028 10.0028,10.0028 -3.00084,14.00392 -10.0028,-2.00056 -1.23888,10.20868 1.17865,4.57344 1.152,3.072 0,3.832 7.296,0.383 1.535,1.922 3.457,1.918 0,3.074 1.918,2.305 1.154,0.004 2.303,-4.225 9.984,1.916 7.682,-1.918 6.144,-1.537 8.448,6.148 0,3.838 3.839,0.383 3.31023,-1.9018 z"
     id="wk44"
     style="fill-opacity:1;stroke:#000000;stroke-width:1;stroke-linecap:butt;stroke-linejoin:bevel;stroke-miterlimit:1;stroke-opacity:1;stroke-dasharray:none" /><path
     d="m 367.10282,718.20116 -4.00112,-7.00196 -10.0028,3.00084 0,-12.00336 -10.0028,-3.00084 -11.00308,6.00168 -11.00308,-15.0042 -7.91827,3.11515 1.9166,-12.11767 15.00421,-8.00224 5.0014,8.00224 17.08558,-9.95147 29.31348,-12.76928 1.11306,6.69295 3.455,0.384 1.539,6.909 0.767,-0.374 0.767,9.979 -4.606,8.447 -1.154,3.456 9.217,-1.151 -2.688,7.68 -0.7815,8.00871 z"
     id="wk45"
     style="fill-opacity:1;stroke:#000000;stroke-width:1;stroke-linecap:butt;stroke-linejoin:bevel;stroke-miterlimit:1;stroke-opacity:1;stroke-dasharray:none" /><polygon
     points="562.701,506.955 566.159,505.035 572.688,506.189 576.143,516.551 581.903,512.323 607.632,494.667 612.626,483.149 605.326,475.848 606.862,471.245 603.407,469.708 604.944,455.5 605.326,451.656 600.334,445.127 595.727,433.613 602.257,432.077 601.494,427.467 597.264,423.628 586.512,427.467 585.746,429.771 576.912,429.004 576.91,417.867 560.399,418.248 560.784,411.34 555.79,410.185 556.557,405.578 546.958,404.424 546.575,407.496 542.735,408.649 531.983,406.347 529.678,394.827 524.688,396.365 513.934,396.365 512.016,390.989 508.176,388.299 502.801,387.528 495.504,382.541 485.134,379.083 483.216,386.38 479.76,386.764 475.918,387.915 476.303,390.989 473.612,391.371 459.026,390.605 457.872,384.844 449.425,382.154 445.583,379.082 432.143,378.317 420.626,369.099 416.016,368.716 411.407,362.571 406.8,354.893 396.432,347.981 391.825,336.844 382.225,323.784 388.369,315.72 390.287,309.959 388.369,309.581 398.735,302.667 398.352,301.129 394.127,297.676 390.673,296.141 387.983,293.834 393.742,273.099 393.742,272.716 401.425,257.357 395.278,250.829 400.655,245.067 396.815,242.375 399.119,238.541 398.352,233.548 395.662,233.928 398.735,220.109 402.19,216.653 403.727,210.504 399.887,205.127 404.112,202.056 389.134,201.676 390.673,199.366 387.6,192.84 381.841,192.456 379.534,200.139 371.089,201.292 368.016,198.221 361.104,190.157 364.944,177.485 369.553,172.493 367.632,164.044 368.016,160.588 366.481,153.292 374.159,155.981 381.458,151.756 381.456,138.315 371.856,118.729 373.007,116.428 372.626,114.508 376.459,109.134 373.007,103.366 374.54,101.065 376.461,92.6206 382.223,90.6958 382.991,84.1675 377.999,65.3501 370.317,61.5122 363.79,64.5835 355.344,67.6558 352.272,60.3599 353.805,54.9839 350.735,60.3647 342.673,56.5249 336.143,56.9087 326.543,57.2925 321.168,61.1294 316.176,59.5952 311.953,56.1392 308.494,55.3716 307.727,55.3716 300.815,54.604 296.206,49.6106 287.76,49.2271 284.688,46.1548 289.68,33.8667 285.841,31.5649 275.856,30.4146 269.326,21.5806 263.953,20.0396 257.425,24.2671 253.2,22.729 252.43,15.8208 250.127,12.7485 241.68,13.8989 239.76,12.3647 242.831,3.14893 240.143,1.22705 232.461,3.14893 223.632,17.355 213.647,14.2827 210.575,26.1841 209.425,32.3296 212.497,39.2444 204.815,40.397 199.055,44.6255 197.518,45.771 195.983,47.6929 190.991,53.0669 185.231,54.604 169.872,63.8208 164.112,59.981 158.352,63.0474 152.975,63.4321 150.673,59.2056 147.6,56.52 133.776,53.8364 123.409,58.062 119.573,56.5249 118.805,51.1519 117.262,51.5298 101.518,52.6831 96.5276,54.2212 95.3757,63.0474 82.7039,74.1841 77.7092,73.8052 62.7368,74.9556 45.4556,79.1802 44.3013,92.2368 44.6841,96.0747 44.3032,101.834 51.6003,112.971 53.1372,126.796 60.0454,125.26 61.5825,130.635 70.4146,144.077 77.7092,156.749 83.469,165.581 92.303,159.047 94.6096,159.816 93.8386,167.499 88.4636,175.563 85.7742,180.941 89.6121,190.54 102.668,207.435 91.1526,207.435 89.2312,208.205 85.7756,217.035 85.7756,221.256 96.1428,233.928 100.752,239.693 116.882,252.749 118.415,253.515 116.882,260.427 110.352,263.883 97.6804,265.42 98.8308,268.107 101.903,267.725 105.742,273.099 110.352,280.392 104.591,284.621 104.592,285.771 108.432,292.295 111.505,291.53 114.575,296.525 115.344,303.052 121.485,308.04 119.184,310.728 112.272,312.648 105.36,318.792 106.512,326.475 116.114,329.163 114.575,337.611 108.815,344.525 108.815,344.902 96.9104,354.12 89.2312,354.893 89.2312,357.576 95.76,361.03 96.1428,366.792 94.6096,372.171 90.3835,371.784 85.0085,371.784 73.4868,372.171 66.1921,375.245 63.5007,376.011 57.356,376.392 56.9753,376.392 48.1411,376.392 43.9146,376.011 38.9282,375.628 32.0122,376.011 27.022,377.548 21.647,378.694 23.5671,384.46 18.1899,389.834 10.8931,391.755 6.66846,390.605 1.68018,393.292 7.82275,401.739 15.5044,407.115 20.4966,408.651 22.7993,410.571 21.2642,412.107 13.9673,417.485 13.9673,424.012 17.0396,425.165 21.2622,427.848 22.7954,435.149 19.3403,440.141 5.51807,453.576 8.20557,456.648 5.90088,459.34 6.67236,476.237 10.897,482.38 17.8091,485.453 23.9497,500.04 27.4089,503.499 28.5571,507.72 27.0259,512.716 27.4089,516.167 31.2466,523.848 35.4712,528.84 47.7564,528.077 49.6802,525.383 61.5825,528.844 66.1899,532.3 71.5688,531.528 80.3992,539.592 80.78,539.211 85.3894,537.292 86.928,537.292 77.7078,551.117 81.1682,560.715 88.4612,564.171 93.071,567.628 90.3835,568.011 89.616,573.771 92.303,578.764 91.1492,580.683 94.2214,581.834 99.2112,587.596 97.2976,595.656 99.6003,597.958 98.446,602.184 98.0652,606.024 101.134,606.406 101.134,607.949 107.282,611.784 120.717,606.792 130.317,610.631 134.543,612.939 144.143,616.392 147.216,614.856 153.36,615.245 158.352,612.555 164.114,615.245 163.729,617.936 165.262,616.776 170.257,616.781 181.389,612.944 187.534,622.541 189.841,620.621 198.288,622.539 197.903,629.067 198.288,631.755 200.206,635.595 200.206,637.129 207.117,639.047 204.813,642.12 217.872,655.56 214.8,656.328 212.882,660.941 212.497,663.628 200.975,677.448 198.288,674.375 193.298,680.52 194.831,683.981 204.432,688.208 208.657,686.671 211.727,688.205 213.645,693.583 217.485,693.964 217.864,698.573 218.252,702.411 221.711,702.792 219.026,703.948 218.639,710.473 213.645,711.241 216.717,717.383 216.334,718.542 217.102,721.612 221.714,726.604 231.694,726.604 236.303,727.372 237.071,724.299 243.983,720.842 248.975,722.381 253.584,725.836 252.819,728.909 258.19,723.532 260.114,725.067 261.645,723.915 264.717,723.149 270.862,727.374 272.016,731.983 273.168,735.055 273.168,738.887 280.464,739.27 281.999,741.192 285.456,743.11 285.456,746.184 287.374,748.489 288.528,748.493 290.831,744.268 300.815,746.184 308.497,744.266 314.641,742.729 323.089,748.877 323.089,752.715 326.928,753.098 330.384,751.182 331.918,752.334 338.446,756.94 338.831,757.321 338.448,766.542 345.742,766.157 348.815,774.604 362.641,771.911 366.096,770.762 375.313,774.987 383.376,776.903 384.912,772.301 387.6,770.381 389.903,773.836 395.662,784.584 397.967,783.049 401.425,775.372 401.042,770.764 406.8,764.235 409.874,758.854 412.176,755.405 412.559,754.635 411.407,746.956 402.959,745.805 402.959,744.647 405.262,742.346 404.494,736.204 410.257,730.053 410.257,727.372 408.719,723.915 402.959,724.682 395.662,719.692 399.505,712.782 389.134,708.555 389.903,700.493 392.591,692.813 383.374,693.964 384.528,690.508 389.134,682.061 388.367,672.082 387.6,672.456 386.061,665.547 382.606,665.163 381.456,658.636 380.686,652.109 378.384,652.493 377.616,649.42 375.313,642.12 382.225,639.047 386.446,638.283 386.061,637.127 386.063,634.061 385.295,626.375 381.458,621.004 380.303,608.328 384.528,604.109 382.606,600.267 377.999,599.883 374.159,589.899 375.313,588.365 386.831,579.917 387.6,573.388 384.143,572.232 384.91,562.635 392.592,556.493 394.512,549.964 405.262,551.115 407.953,548.811 417.934,543.435 417.168,541.516 424.078,542.282 429.456,540.365 437.134,542.283 442.127,531.528 450.575,536.904 460.176,532.299 460.944,532.683 471.698,528.456 472.846,524.621 482.446,523.848 484.367,524.616 479.76,529.992 492.815,521.547 498.575,510.027 508.944,511.949 509.326,511.949 517.389,515.021 525.071,507.34 526.606,506.571 530.446,501.581 534.285,500.814 538.127,504.267 538.127,504.267 538.895,510.029 547.727,514.252 553.487,512.711 556.944,516.55 563.856,511.563 "
     id="lsa"
     style="fill:none;stroke:#000000;stroke-width:2.26769996;stroke-linecap:butt;stroke-linejoin:bevel;stroke-miterlimit:3.8636899" /><text
     x="177.19398"
     y="101.02829"
     id="wkt01"
     xml:space="preserve"
     style="font-size:20px;font-style:normal;font-variant:normal;font-weight:normal;font-stretch:normal;line-height:125%;letter-spacing:0px;word-spacing:0px;fill:#000000;fill-opacity:1;stroke:none;font-family:DejaVu Sans;-inkscape-font-specification:DejaVu Sans"><tspan
       x="177.19398"
       y="101.02829"
       id="tspan3990"
       style="font-style:normal;font-variant:normal;font-weight:normal;font-stretch:normal;text-align:center;text-anchor:middle;font-family:DejaVu Sans;-inkscape-font-specification:DejaVu Sans">01</tspan></text>
<text
     x="146.04091"
     y="195.05463"
     id="wkt02"
     xml:space="preserve"
     style="font-size:20px;font-style:normal;font-variant:normal;font-weight:normal;font-stretch:normal;line-height:125%;letter-spacing:0px;word-spacing:0px;fill:#000000;fill-opacity:1;stroke:none;font-family:DejaVu Sans;-inkscape-font-specification:DejaVu Sans"><tspan
       x="146.04091"
       y="195.05463"
       id="tspan3994"
       style="font-style:normal;font-variant:normal;font-weight:normal;font-stretch:normal;text-align:center;text-anchor:middle;font-family:DejaVu Sans;-inkscape-font-specification:DejaVu Sans">02</tspan></text>
<text
     x="303.0849"
     y="101.0283"
     id="wkt03"
     xml:space="preserve"
     style="font-size:20px;font-style:normal;font-variant:normal;font-weight:normal;font-stretch:normal;text-align:center;line-height:125%;letter-spacing:0px;word-spacing:0px;text-anchor:middle;fill:#000000;fill-opacity:1;stroke:none;font-family:Sans;-inkscape-font-specification:Sans"><tspan
       x="303.0849"
       y="101.0283"
       id="tspan4000">03</tspan></text>
<text
     x="259.07254"
     y="169.04735"
     id="wkt04"
     xml:space="preserve"
     style="font-size:20px;font-style:normal;font-variant:normal;font-weight:normal;font-stretch:normal;text-align:center;line-height:125%;letter-spacing:0px;word-spacing:0px;text-anchor:middle;fill:#000000;fill-opacity:1;stroke:none;font-family:Sans;-inkscape-font-specification:Sans"><tspan
       x="259.07254"
       y="169.04735"
       id="tspan4006">04</tspan></text>
<text
     x="337.09442"
     y="241.06752"
     id="wkt05"
     xml:space="preserve"
     style="font-size:20px;font-style:normal;font-variant:normal;font-weight:normal;font-stretch:normal;text-align:center;line-height:125%;letter-spacing:0px;word-spacing:0px;text-anchor:middle;fill:#000000;fill-opacity:1;stroke:none;font-family:Sans;-inkscape-font-specification:Sans"><tspan
       x="337.09442"
       y="241.06752"
       id="tspan4010">05</tspan></text>
<text
     x="330.09244"
     y="326.09131"
     id="wkt06"
     xml:space="preserve"
     style="font-size:20px;font-style:normal;font-variant:normal;font-weight:normal;font-stretch:normal;text-align:center;line-height:125%;letter-spacing:0px;word-spacing:0px;text-anchor:middle;fill:#000000;fill-opacity:1;stroke:none;font-family:Sans;-inkscape-font-specification:Sans"><tspan
       x="330.09244"
       y="326.09131"
       id="tspan4014">06</tspan></text>
<text
     x="154.04315"
     y="285.07983"
     id="wkt07"
     xml:space="preserve"
     style="font-size:20px;font-style:normal;font-variant:normal;font-weight:normal;font-stretch:normal;text-align:center;line-height:125%;letter-spacing:0px;word-spacing:0px;text-anchor:middle;fill:#000000;fill-opacity:1;stroke:none;font-family:Sans;-inkscape-font-specification:Sans"><tspan
       x="154.04315"
       y="285.07983"
       id="tspan4018">07</tspan></text>
<text
     x="240.06725"
     y="281.0787"
     id="wkt08"
     xml:space="preserve"
     style="font-size:20px;font-style:normal;font-variant:normal;font-weight:normal;font-stretch:normal;text-align:center;line-height:125%;letter-spacing:0px;word-spacing:0px;text-anchor:middle;fill:#000000;fill-opacity:1;stroke:none;font-family:Sans;-inkscape-font-specification:Sans"><tspan
       x="240.06725"
       y="281.0787"
       id="tspan4022">08</tspan></text>
<text
     x="149.04175"
     y="384.1076"
     id="wkt09"
     xml:space="preserve"
     style="font-size:20px;font-style:normal;font-variant:normal;font-weight:normal;font-stretch:normal;text-align:center;line-height:125%;letter-spacing:0px;word-spacing:0px;text-anchor:middle;fill:#000000;fill-opacity:1;stroke:none;font-family:Sans;-inkscape-font-specification:Sans"><tspan
       x="149.04175"
       y="384.1076"
       id="tspan4026">09</tspan></text>
<text
     x="242.06779"
     y="357.10001"
     id="wktmd"
     xml:space="preserve"
     style="font-size:13px;font-style:normal;font-variant:normal;font-weight:normal;font-stretch:normal;text-align:center;line-height:125%;letter-spacing:0px;word-spacing:0px;text-anchor:middle;fill:#000000;fill-opacity:1;stroke:none;font-family:Sans;-inkscape-font-specification:Sans"><tspan
       x="242.06779"
       y="357.10001"
       id="tspan4030">10-13</tspan></text>
<text
     x="108.03026"
     y="421.11795"
     id="wkt14"
     xml:space="preserve"
     style="font-size:20px;font-style:normal;font-variant:normal;font-weight:normal;font-stretch:normal;text-align:center;line-height:125%;letter-spacing:0px;word-spacing:0px;text-anchor:middle;fill:#000000;fill-opacity:1;stroke:none;font-family:Sans;-inkscape-font-specification:Sans"><tspan
       x="108.03026"
       y="421.11795"
       id="tspan4034">14</tspan></text>
<text
     x="46.01289"
     y="417.11682"
     id="wkt15"
     xml:space="preserve"
     style="font-size:20px;font-style:normal;font-variant:normal;font-weight:normal;font-stretch:normal;text-align:center;line-height:125%;letter-spacing:0px;word-spacing:0px;text-anchor:middle;fill:#000000;fill-opacity:1;stroke:none;font-family:Sans;-inkscape-font-specification:Sans"><tspan
       x="46.01289"
       y="417.11682"
       id="tspan4038">15</tspan></text>
<text
     x="54.015125"
     y="510.14288"
     id="wkt16"
     xml:space="preserve"
     style="font-size:20px;font-style:normal;font-variant:normal;font-weight:normal;font-stretch:normal;text-align:center;line-height:125%;letter-spacing:0px;word-spacing:0px;text-anchor:middle;fill:#000000;fill-opacity:1;stroke:none;font-family:Sans;-inkscape-font-specification:Sans"><tspan
       x="54.015125"
       y="510.14288"
       id="tspan4042">16</tspan></text>
<text
     x="218.06107"
     y="435.12186"
     id="wkt17"
     xml:space="preserve"
     style="font-size:20px;font-style:normal;font-variant:normal;font-weight:normal;font-stretch:normal;text-align:center;line-height:125%;letter-spacing:0px;word-spacing:0px;text-anchor:middle;fill:#000000;fill-opacity:1;stroke:none;font-family:Sans;-inkscape-font-specification:Sans"><tspan
       x="218.06107"
       y="435.12186"
       id="tspan4046">17</tspan></text>
<text
     x="187.0524"
     y="479.13419"
     id="wkt18"
     xml:space="preserve"
     style="font-size:20px;font-style:normal;font-variant:normal;font-weight:normal;font-stretch:normal;text-align:center;line-height:125%;letter-spacing:0px;word-spacing:0px;text-anchor:middle;fill:#000000;fill-opacity:1;stroke:none;font-family:Sans;-inkscape-font-specification:Sans"><tspan
       x="187.0524"
       y="479.13419"
       id="tspan4050">18</tspan></text>
<text
     x="290.08124"
     y="399.11179"
     id="wkt19"
     xml:space="preserve"
     style="font-size:18px;font-style:normal;font-variant:normal;font-weight:normal;font-stretch:normal;text-align:center;line-height:125%;letter-spacing:0px;word-spacing:0px;text-anchor:middle;fill:#000000;fill-opacity:1;stroke:none;font-family:Sans;-inkscape-font-specification:Sans"><tspan
       x="290.08124"
       y="399.11179"
       id="tspan4054">19</tspan></text>
<text
     x="219.06137"
     y="389.10898"
     id="wkt20"
     xml:space="preserve"
     style="font-size:20px;font-style:normal;font-variant:normal;font-weight:normal;font-stretch:normal;text-align:center;line-height:125%;letter-spacing:0px;word-spacing:0px;text-anchor:middle;fill:#000000;fill-opacity:1;stroke:none;font-family:Sans;-inkscape-font-specification:Sans"><tspan
       x="219.06137"
       y="389.10898"
       id="tspan4058">20</tspan></text>
<text
     x="265.07425"
     y="478.13391"
     id="wkt21"
     xml:space="preserve"
     style="font-size:20px;font-style:normal;font-variant:normal;font-weight:normal;font-stretch:normal;text-align:center;line-height:125%;letter-spacing:0px;word-spacing:0px;text-anchor:middle;fill:#000000;fill-opacity:1;stroke:none;font-family:Sans;-inkscape-font-specification:Sans"><tspan
       x="265.07425"
       y="478.13391"
       id="tspan4062">21</tspan></text>
<text
     x="321.08994"
     y="507.14203"
     id="wkt22"
     xml:space="preserve"
     style="font-size:20px;font-style:normal;font-variant:normal;font-weight:normal;font-stretch:normal;text-align:center;line-height:125%;letter-spacing:0px;word-spacing:0px;text-anchor:middle;fill:#000000;fill-opacity:1;stroke:none;font-family:Sans;-inkscape-font-specification:Sans"><tspan
       x="321.08994"
       y="507.14203"
       id="tspan4066">22</tspan></text>
<text
     x="349.09778"
     y="405.11346"
     id="wkt23"
     xml:space="preserve"
     style="font-size:20px;font-style:normal;font-variant:normal;font-weight:normal;font-stretch:normal;text-align:center;line-height:125%;letter-spacing:0px;word-spacing:0px;text-anchor:middle;fill:#000000;fill-opacity:1;stroke:none;font-family:Sans;-inkscape-font-specification:Sans"><tspan
       x="349.09778"
       y="405.11346"
       id="tspan4070">23</tspan></text>
<text
     x="505.14148"
     y="431.12073"
     id="wkt24"
     xml:space="preserve"
     style="font-size:20px;font-style:normal;font-variant:normal;font-weight:normal;font-stretch:normal;text-align:center;line-height:125%;letter-spacing:0px;word-spacing:0px;text-anchor:middle;fill:#000000;fill-opacity:1;stroke:none;font-family:Sans;-inkscape-font-specification:Sans"><tspan
       x="505.14148"
       y="431.12073"
       id="tspan4074">24</tspan></text>
<text
     x="492.13785"
     y="495.13867"
     id="wkt25"
     xml:space="preserve"
     style="font-size:20px;font-style:normal;font-variant:normal;font-weight:normal;font-stretch:normal;text-align:center;line-height:125%;letter-spacing:0px;word-spacing:0px;text-anchor:middle;fill:#000000;fill-opacity:1;stroke:none;font-family:Sans;-inkscape-font-specification:Sans"><tspan
       x="492.13785"
       y="495.13867"
       id="tspan4078">25</tspan></text>
<text
     x="377.10562"
     y="469.13138"
     id="wkt26"
     xml:space="preserve"
     style="font-size:18px;font-style:normal;font-variant:normal;font-weight:normal;font-stretch:normal;text-align:center;line-height:125%;letter-spacing:0px;word-spacing:0px;text-anchor:middle;fill:#000000;fill-opacity:1;stroke:none;font-family:Sans;-inkscape-font-specification:Sans"><tspan
       x="377.10562"
       y="469.13138"
       id="tspan4082">26</tspan></text>
<text
     x="413.11572"
     y="428.1199"
     transform="translate(0,-2.1717685e-6)"
     id="wkt27"
     xml:space="preserve"
     style="font-size:20px;font-style:normal;font-variant:normal;font-weight:normal;font-stretch:normal;text-align:center;line-height:125%;letter-spacing:0px;word-spacing:0px;text-anchor:middle;fill:#000000;fill-opacity:1;stroke:none;font-family:Sans;-inkscape-font-specification:Sans"><tspan
       x="413.11572"
       y="428.1199"
       id="tspan4086">27</tspan></text>
<text
     x="382.10703"
     y="526.1474"
     id="wkt28"
     xml:space="preserve"
     style="font-size:18px;font-style:normal;font-variant:normal;font-weight:normal;font-stretch:normal;text-align:center;line-height:125%;letter-spacing:0px;word-spacing:0px;text-anchor:middle;fill:#000000;fill-opacity:1;stroke:none;font-family:Sans;-inkscape-font-specification:Sans"><tspan
       x="382.10703"
       y="526.1474"
       id="tspan4090">28</tspan></text>
<text
     x="430.12045"
     y="529.14825"
     id="wkt29"
     xml:space="preserve"
     style="font-size:20px;font-style:normal;font-variant:normal;font-weight:normal;font-stretch:normal;text-align:center;line-height:125%;letter-spacing:0px;word-spacing:0px;text-anchor:middle;fill:#000000;fill-opacity:1;stroke:none;font-family:Sans;-inkscape-font-specification:Sans"><tspan
       x="430.12045"
       y="529.14825"
       id="tspan4094">29</tspan></text>
<text
     x="132.03699"
     y="487.13641"
     id="wkt30"
     xml:space="preserve"
     style="font-size:20px;font-style:normal;font-variant:normal;font-weight:normal;font-stretch:normal;text-align:center;line-height:125%;letter-spacing:0px;word-spacing:0px;text-anchor:middle;fill:#000000;fill-opacity:1;stroke:none;font-family:Sans;-inkscape-font-specification:Sans"><tspan
       x="132.03699"
       y="487.13641"
       id="tspan4098">30</tspan></text>
<text
     x="137.03839"
     y="588.16473"
     id="wkt31"
     xml:space="preserve"
     style="font-size:20px;font-style:normal;font-variant:normal;font-weight:normal;font-stretch:normal;text-align:center;line-height:125%;letter-spacing:0px;word-spacing:0px;text-anchor:middle;fill:#000000;fill-opacity:1;stroke:none;font-family:Sans;-inkscape-font-specification:Sans"><tspan
       x="137.03839"
       y="588.16473"
       id="tspan4102">31</tspan></text>
<text
     x="210.05884"
     y="529.14819"
     id="wkt32"
     xml:space="preserve"
     style="font-size:20px;font-style:normal;font-variant:normal;font-weight:normal;font-stretch:normal;text-align:center;line-height:125%;letter-spacing:0px;word-spacing:0px;text-anchor:middle;fill:#000000;fill-opacity:1;stroke:none;font-family:Sans;-inkscape-font-specification:Sans"><tspan
       x="210.05884"
       y="529.14819"
       id="tspan4106">32</tspan></text>
<text
     x="236.06612"
     y="579.16217"
     id="wkt33"
     xml:space="preserve"
     style="font-size:20px;font-style:normal;font-variant:normal;font-weight:normal;font-stretch:normal;text-align:center;line-height:125%;letter-spacing:0px;word-spacing:0px;text-anchor:middle;fill:#000000;fill-opacity:1;stroke:none;font-family:Sans;-inkscape-font-specification:Sans"><tspan
       x="236.06612"
       y="579.16217"
       id="tspan4110">33</tspan></text>
<text
     x="301.08435"
     y="550.15411"
     id="wkt34"
     xml:space="preserve"
     style="font-size:20px;font-style:normal;font-variant:normal;font-weight:normal;font-stretch:normal;text-align:center;line-height:125%;letter-spacing:0px;word-spacing:0px;text-anchor:middle;fill:#000000;fill-opacity:1;stroke:none;font-family:Sans;-inkscape-font-specification:Sans"><tspan
       x="301.08435"
       y="550.15411"
       id="tspan4114">34</tspan></text>
<text
     x="361.10117"
     y="617.17291"
     id="wkt35"
     xml:space="preserve"
     style="font-size:20px;font-style:normal;font-variant:normal;font-weight:normal;font-stretch:normal;text-align:center;line-height:125%;letter-spacing:0px;word-spacing:0px;text-anchor:middle;fill:#000000;fill-opacity:1;stroke:none;font-family:Sans;-inkscape-font-specification:Sans"><tspan
       x="361.10117"
       y="617.17291"
       id="tspan4118">35</tspan></text>
<text
     x="333.09332"
     y="587.16449"
     id="wkthal"
     xml:space="preserve"
     style="font-size:13px;font-style:normal;font-variant:normal;font-weight:normal;font-stretch:normal;text-align:center;line-height:125%;letter-spacing:0px;word-spacing:0px;text-anchor:middle;fill:#000000;fill-opacity:1;stroke:none;font-family:Sans;-inkscape-font-specification:Sans"><tspan
       x="333.09332"
       y="587.16449"
       id="tspan4122">36-39</tspan></text>
<text
     x="323.09048"
     y="649.18182"
     id="wkt40"
     xml:space="preserve"
     style="font-size:20px;font-style:normal;font-variant:normal;font-weight:normal;font-stretch:normal;text-align:center;line-height:125%;letter-spacing:0px;word-spacing:0px;text-anchor:middle;fill:#000000;fill-opacity:1;stroke:none;font-family:Sans;-inkscape-font-specification:Sans"><tspan
       x="323.09048"
       y="649.18182"
       id="tspan4126">40</tspan></text>
<text
     x="246.06892"
     y="629.17621"
     id="wkt41"
     xml:space="preserve"
     style="font-size:20px;font-style:normal;font-variant:normal;font-weight:normal;font-stretch:normal;text-align:center;line-height:125%;letter-spacing:0px;word-spacing:0px;text-anchor:middle;fill:#000000;fill-opacity:1;stroke:none;font-family:Sans;-inkscape-font-specification:Sans"><tspan
       x="246.06892"
       y="629.17621"
       id="tspan4130">41</tspan></text>
<text
     x="247.0692"
     y="694.19446"
     id="wkt42"
     xml:space="preserve"
     style="font-size:20px;font-style:normal;font-variant:normal;font-weight:normal;font-stretch:normal;text-align:center;line-height:125%;letter-spacing:0px;word-spacing:0px;text-anchor:middle;fill:#000000;fill-opacity:1;stroke:none;font-family:Sans;-inkscape-font-specification:Sans"><tspan
       x="247.0692"
       y="694.19446"
       id="tspan4134">42</tspan></text>
<text
     x="377.10562"
     y="753.211"
     id="wkt43"
     xml:space="preserve"
     style="font-size:20px;font-style:normal;font-variant:normal;font-weight:normal;font-stretch:normal;text-align:center;line-height:125%;letter-spacing:0px;word-spacing:0px;text-anchor:middle;fill:#000000;fill-opacity:1;stroke:none;font-family:Sans;-inkscape-font-specification:Sans"><tspan
       x="377.10562"
       y="753.211"
       id="tspan4138">43</tspan></text>
<text
     x="313.08771"
     y="729.20422"
     id="wkt44"
     xml:space="preserve"
     style="font-size:20px;font-style:normal;font-variant:normal;font-weight:normal;font-stretch:normal;text-align:center;line-height:125%;letter-spacing:0px;word-spacing:0px;text-anchor:middle;fill:#000000;fill-opacity:1;stroke:none;font-family:Sans;-inkscape-font-specification:Sans"><tspan
       x="313.08771"
       y="729.20422"
       id="tspan4142">44</tspan></text>
<text
     x="362.10144"
     y="696.19501"
     id="wkt45"
     xml:space="preserve"
     style="font-size:20px;font-style:normal;font-variant:normal;font-weight:normal;font-stretch:normal;text-align:center;line-height:125%;letter-spacing:0px;word-spacing:0px;text-anchor:middle;fill:#000000;fill-opacity:1;stroke:none;font-family:Sans;-inkscape-font-specification:Sans"><tspan
       x="362.10144"
       y="696.19501"
       id="tspan4146">45</tspan></text>
</svg>
