<?xml version="1.0" encoding="UTF-8" standalone="no"?>
<?xml-stylesheet type="text/css" href="svg-stylesheet.css" ?><svg
   xmlns:dc="http://purl.org/dc/elements/1.1/"
   xmlns:cc="http://creativecommons.org/ns#"
   xmlns:rdf="http://www.w3.org/1999/02/22-rdf-syntax-ns#"
   xmlns:svg="http://www.w3.org/2000/svg"
   xmlns="http://www.w3.org/2000/svg"
   xmlns:sodipodi="http://sodipodi.sourceforge.net/DTD/sodipodi-0.dtd"
   xmlns:inkscape="http://www.inkscape.org/namespaces/inkscape"
   version="1.0"
   width="400"
   height="538.56476"
   viewBox="0 0 399.99999 538.56478"
   id="svg2"
   xml:space="preserve"
   inkscape:version="0.48.1 r9760"
   sodipodi:docname="wahlkreise_magdeburg.svg"><sodipodi:namedview
   pagecolor="#ffffff"
   bordercolor="#666666"
   borderopacity="1"
   objecttolerance="10"
   gridtolerance="10"
   guidetolerance="10"
   inkscape:pageopacity="0"
   inkscape:pageshadow="2"
   inkscape:window-width="1680"
   inkscape:window-height="993"
   id="namedview17"
   showgrid="false"
   inkscape:zoom="0.51618676"
   inkscape:cx="-221.35912"
   inkscape:cy="269.28238"
   inkscape:window-x="0"
   inkscape:window-y="0"
   inkscape:window-maximized="1"
   inkscape:current-layer="svg2" /><defs
   id="defs18" /><metadata
   id="metadata2343"><rdf:RDF><cc:Work
       rdf:about=""><dc:format>image/svg+xml</dc:format><dc:type
         rdf:resource="http://purl.org/dc/dcmitype/StillImage" /><dc:title /></cc:Work></rdf:RDF></metadata><path
   d="m 192.29853,0.20384108 c 3.53192,17.44274992 7.94372,34.56016992 11.4886,51.99935992 1.5186,7.53865 3.32607,15.10056 4.83142,22.78484 -9.42622,9.55273 -19.87034,18.15455 -29.23845,27.811569 0.092,4.43299 -1.62736,9.139 -3.24872,12.90566 -1.24953,-2.3216 -0.61706,-7.23267 -4.7393,-6.68855 -6.14296,1.11524 -11.55095,5.11648 -17.49212,7.14717 -8.34511,3.54639 -16.90516,6.6978 -24.66478,11.40236 -6.0698,2.38318 -12.12966,4.79308 -18.20554,7.15992 5.54786,7.22254 12.78441,12.77747 20.84201,16.95352 5.40627,3.1692 10.81256,6.3384 16.21884,9.5076 0.26487,7.33852 0.54467,14.67652 0.81535,22.01484 -2.69426,1.10092 -10.3688,-1.08213 -9.20103,2.56542 1.24971,3.4048 2.28953,6.86173 2.67811,10.48041 4.3716,-0.0263 6.21738,-3.51284 9.70328,-4.75253 5.27701,-3.17254 2.79974,3.93502 3.34256,7.03878 -1.6511,5.55668 4.76917,2.55044 7.97984,2.94927 4.95012,-0.2928 9.90022,-0.58561 14.85034,-0.87843 0.16646,8.20438 0.16087,16.66604 1.15646,24.6923 1.78197,3.80188 8.79358,-0.0404 4.67154,5.96514 -0.50722,3.54851 6.38844,2.50154 9.0374,3.33119 8.75426,1.40771 17.95577,1.18465 25.98911,5.38504 3.83163,3.18864 5.30726,-2.63016 7.30544,-5.06501 7.41998,-11.0372 12.10278,-24.08607 22.21484,-33.10724 6.32571,-7.13358 10.41187,-16.04647 13.72106,-24.91627 3.53046,-14.77735 3.29098,-30.13983 6.24468,-44.98199 1.99572,-7.27804 3.99142,-14.55604 5.98713,-21.83406 2.71785,-3.80831 5.53275,-8.85228 8.62371,-12.931359 4.93649,-7.08387 11.11676,-13.25295 17.85016,-18.61304 -5.9339,-4.71978 -13.3675,-0.0473 -20.09056,-0.79766 -4.68027,1.05823 -0.4478,-4.83522 -1.60954,-7.49882 -0.99382,-7.43168 -1.92286,-15.014 -5.8591,-21.58875 -3.88432,-7.69756 -8.25688,-14.94919 -12.19411,-22.50508 -2.87335,-4.94445 -6.01352,-9.89412 -5.84577,-15.84528 -0.37268,-3.6576899 0.18884,-7.7787199 -4.3186,-6.4212099 -1.7073,-1.97279 -5.31232,-2.35371 -8.59558,-2.19087 -9.1475,0.69 -18.3287,-1.16772002 -27.53041,-0.77869002 -7.56612,-0.47378 -15.13295,-0.63358 -22.71827,-0.69955 z"
   id="wk10"
   style="stroke:#000000;stroke-width:1.00000004;stroke-opacity:1;stroke-miterlimit:4;stroke-dasharray:none" /><path
   d="m 274.58661,110.07419 c -4.22769,14.33926 -8.17716,28.75209 -8.83878,43.77218 -0.82538,15.60963 -4.51884,31.23396 -13.90735,44.01519 -6.291,7.37653 -13.29161,14.32133 -17.32812,23.38357 -3.89595,6.78272 -7.71357,13.65983 -12.41481,19.92435 -11.51843,-6.39001 -25.15029,-4.86043 -37.41898,-8.21811 -10.26733,-6.48181 -22.69417,-5.44737 -34.27887,-6.45554 -5.8336,1.07225 -11.50953,0.63621 -16.98577,-1.71008 -5.93835,0.2942 -13.50519,1.88986 -4.7616,5.84269 6.37297,-0.46755 10.66963,6.26439 10.21469,12.09359 1.44471,14.67704 2.88194,29.35483 4.33128,44.03141 5.58274,0.74282 11.1443,2.23386 15.89966,0 5.79814,-0.0663 12.27225,-0.11773 11.81429,7.30451 4.27461,17.59267 18.97961,30.64939 22.44029,48.59021 1.2265,7.2331 9.72799,-2.32037 14.68011,-0.44996 4.69318,-3.21909 8.73436,-0.55976 13.06838,-5.51506 5.26289,-1.9373 4.31845,-12.95298 9.79168,-10.76131 13.23457,5.60644 24.0493,17.43389 27.74324,31.33449 1.9647,14.67563 -3.82819,29.614 -0.32311,44.28502 4.44784,23.97793 12.98173,47.47277 26.57759,67.85358 6.66934,6.87482 15.01073,14.25704 22.47858,21.21374 4.56918,5.63792 8.34587,-11.28815 12.76584,-3.48063 4.30487,3.5026 7.97434,8.23864 11.89144,11.48979 5.62836,-0.41494 8.45224,-0.8232 14.17535,-5.07752 6.78704,-1.77855 -0.69819,-11.106 8.03969,-11.33022 6.00263,-2.48401 11.79714,-4.1538 3.44915,-7.51606 -2.79535,-3.79324 -10.4144,-4.59027 -10.52371,-10.90462 -0.0795,-7.46322 10.14456,-8.49853 13.79752,-3.05757 3.98983,4.13211 11.4423,2.39848 12.204,-3.65364 4.46028,-6.10375 -3.3498,-16.1284 3.83576,-20.52721 3.46252,-4.61538 9.90072,0.62596 10.57067,-4.45626 2.43395,-6.12729 -2.97787,-11.9766 -5.59699,-17.15521 -8.47542,-5.47991 -0.13093,-5.22221 4.98739,-6.09929 4.62784,1.18052 10.68167,3.18329 12.83101,-1.99914 -0.45158,-5.77289 -8.2803,-5.1193 -11.24602,-10.2693 -5.97088,-2.4778 -12.29215,-1.68483 -17.0792,-6.73604 -8.63748,-4.01532 7.84686,-5.23251 5.15229,-10.00616 -1.61088,-6.6721 -8.54192,3.20969 -12.60117,4.15585 -4.37154,-4.23568 -5.80307,-9.48177 -5.15971,-15.44097 -7.78584,-2.15098 2.13707,-5.3198 6.05428,-6.21171 3.9884,-2.48711 13.12436,-2.85044 7.73027,-8.78332 -1.68454,-4.61565 -1.1683,-11.66748 -3.63086,-14.80525 -3.47876,-2.37346 -10.37213,-3.30992 -15.43232,-1.56479 -4.41748,1.95685 -8.60758,2.59321 -13.60682,3.07469 -1.63648,-4.03146 -10.51655,1.7302 -9.2193,-4.69362 -1.08428,-4.05044 -4.31096,-4.52855 -0.42042,-7.80967 -5.16458,-1.66089 -5.60499,-9.63459 -3.98154,-14.29181 -0.7631,-4.35928 -2.89752,-9.1664 -4.82182,-12.61522 -4.40438,-2.58277 0.77826,-9.58433 -0.37819,-14.01341 0.75453,-5.3194 0.40377,-8.25009 2.48028,-12.65152 2.67773,-9.35017 6.86744,-18.52445 8.30933,-28.08905 0.83687,-3.74824 1.64263,-8.19807 -0.33629,-12.41082 3.76917,-4.19027 2.18345,-7.32816 -1.03307,-10.9596 -3.51886,-3.84951 -7.9539,-6.28517 -13.25905,-4.66053 -5.48512,1.06692 -9.93105,-1.5265 -11.07488,-7.09852 -3.29559,-3.72064 -0.98328,-5.01008 -2.13656,-9.43811 -3.02469,-1.57536 1.21451,-11.03493 1.02991,-15.69293 -1.64099,-5.80276 14.59177,-2.42951 4.3982,-4.99651 -8.11136,1.83931 -1.25303,-7.57253 -3.05327,-12.02343 0.92641,-4.5959 -8.15499,-8.76045 0.91209,-6.94698 5.21338,0.81274 9.09446,-3.447 6.64807,-8.35146 -0.77685,-3.65949 -8.29848,-1.68169 -11.46847,-4.30521 -4.72582,-2.61359 -10.21118,-5.66255 -9.60136,-12.00812 -4.27897,-9.96412 -11.17774,-19.1456 -18.38392,-27.12337 z"
   id="wk11"
   style="stroke:#000000;stroke-width:1.00000004;stroke-opacity:1;stroke-miterlimit:4;stroke-dasharray:none" /><path
   d="m 111.02964,134.72621 c -8.872,3.4869 -17.51764,7.54932 -26.4866,10.79084 -0.43062,5.66216 0.81181,10.96415 0.17838,16.70223 -4.17678,-1.89709 -9.26298,-2.45765 -13.78473,-3.84748 -0.38363,7.32487 -1.13599,14.62968 -1.33771,21.96388 1.69331,2.52633 -0.42186,6.87951 -3.88516,4.87168 -2.8727,-0.15799 -7.61476,-3.10757 -6.92098,1.81377 -0.68871,2.83863 -2.59371,3.71686 -2.67946,7.68846 2.00635,1.14169 1.76527,5.19229 5.75018,1.98284 4.19456,-3.17207 3.83721,0.99477 4.0014,4.32078 -0.26059,3.947 0.74152,6.15438 3.05229,6.31182 0.33664,6.89317 0.89465,13.77346 1.14037,20.67124 -3.5573,-0.35484 -7.45916,0.22758 -11.13994,-0.46418 -3.9239,-0.4923 -8.09456,-1.2965 -11.91958,0.0437 -1.73506,7.27442 -2.43516,14.69461 -5.46772,21.59232 -2.38568,6.44619 -3.3046,13.43453 -5.40269,19.89943 0.41315,5.91364 -0.36191,11.74618 -2.25497,17.3837 -0.42202,3.73458 3.73565,6.71824 3.09081,10.6658 -2.00592,0.2267 -5.80995,0.62878 -7.78529,2.81784 0.6898,4.77888 1.78496,10.18295 1.01565,15.22887 -1.23397,4.08844 -2.61459,8.14808 -3.31243,12.3706 21.42032,0.24631 42.8406,0.49261 64.26091,0.73893 -0.33807,3.14458 -0.85735,6.70886 2.89955,7.78922 2.60981,2.19478 5.51746,3.50033 8.98072,3.14688 5.50473,0.36884 11.0107,0.67554 16.53008,0.5427 0.54358,-4.34861 1.08716,-8.69722 1.63073,-13.04584 5.24992,1.31318 10.48653,2.68368 15.79768,3.73284 4.75328,-7.26948 6.241,-15.92386 8.66325,-24.11694 6.46074,-2.76594 11.02074,-8.7975 18.06984,-10.3434 1.84703,-1.95963 -0.92332,-6.75782 3.09416,-7.94183 -0.0483,-1.1022 -5.58409,-1.49089 -7.90333,-1.28351 -2.87896,0.29834 -4.76168,2.56098 -8.11261,1.01255 -2.40586,-1.06448 -7.70143,0.66727 -7.75978,-2.66876 -1.57552,-16.02701 -3.15105,-32.05401 -4.72657,-48.08102 -2.50527,-2.3308 -3.95541,-6.58372 -7.97907,-6.14853 -2.70082,0.53927 -6.07481,-3.39651 -6.18485,-4.53664 4.43863,-0.44283 8.98393,-2.57263 13.25404,-0.3506 5.95035,2.67223 12.40983,-0.54883 18.61816,0.80904 8.56457,1.06655 17.78536,0.0241 25.46229,4.6836 2.4839,3.46804 5.43778,-5.22159 2.56146,-4.24124 -3.63727,1.19711 -5.62691,-2.34255 -5.09362,-5.56161 -0.2247,-7.02179 -0.75446,-14.03723 -0.68556,-21.06512 -7.61006,0.45014 -15.22012,0.90029 -22.83018,1.35044 0,-3.80503 0,-7.61007 0,-11.4151 -3.13234,0.69462 -6.20608,1.4695 -7.83799,4.21959 -3.41755,1.42892 -6.42675,2.21181 -5.89136,-2.61311 0.0611,-2.57732 -3.64032,-7.16546 -1.54213,-8.21572 2.62552,-0.83548 7.84618,0.62934 8.70992,-1.76773 -0.2577,-6.99209 -0.52486,-13.98384 -0.77671,-20.97615 -10.16668,-6.37808 -21.27916,-11.41065 -30.51491,-19.14078 -2.18197,-2.44012 -4.36398,-4.88023 -6.54594,-7.32035 z"
   id="wk12"
   style="stroke:#000000;stroke-width:1.00000004;stroke-opacity:1;stroke-miterlimit:4;stroke-dasharray:none" /><path
   d="m 167.37896,287.5688 c -5.7223,1.58912 0.008,9.44039 -6.5536,9.4933 -5.7324,1.8241 -9.5491,7.12017 -15.18096,9.26008 -2.42327,8.19181 -3.90772,16.84965 -8.66324,24.11694 -5.31204,-1.04532 -10.54751,-2.42077 -15.7977,-3.73282 -1.06217,4.04926 -0.201,10.27729 -2.3938,13.04581 -6.99029,-0.0852 -14.31028,0.0201 -21.0713,-1.23864 -4.0682,-2.34593 -8.49235,-4.68777 -6.59392,-10.11627 -21.12808,-0.53248 -42.87632,-0.53441 -64.24295,-0.86281 1.2952,5.29159 -9.057,1.20584 -5.31332,6.30613 2.96652,5.54142 1.13579,12.53287 3.05407,17.61736 1.49493,5.78395 -2.30682,9.33696 -3.55022,14.52604 0.005,3.41847 -2.39829,8.17766 -3.82132,11.40776 -1.16008,4.30598 -2.2257,8.68463 -3.93737,13.23155 -4.3460102,1.53036 -9.5820102,3.94357 -13.10953016,5.68207 3.54165996,6.14174 5.28283996,13.31742 6.27367996,20.20277 -1.13623,3.83725 -2.56951,9.8332 3.016,10.69549 11.5284002,4.82859 23.4713702,8.33796 35.6445002,11.11843 1.24548,-5.77127 6.41808,-0.23449 6.9369,-7.14316 2.1743,-4.36815 3.8009,-12.04068 10.2137,-10.62135 7.38159,-0.51126 12.66823,6.07691 19.01846,8.23499 13.36188,-1.9038 26.56226,-5.22351 39.55138,-8.58319 4.06467,0.42555 11.12144,-3.16417 13.13886,0.008 -1.52255,6.71371 6.21984,1.94258 4.09533,8.21082 -0.0647,7.03054 -0.12947,14.06112 -0.19419,21.09166 6.80926,-3.9077 4.50247,5.87124 9.30695,5.31806 3.82843,0.74394 11.76988,-3.18151 10.48637,3.37545 0.20511,4.03356 0.81436,8.03455 0.922,12.07273 4.54527,1.26976 8.85816,2.59224 9.15028,8.01523 3.34008,9.63316 5.65968,19.58309 9.24639,29.1348 4.93889,-0.20808 9.87779,-0.41612 14.81669,-0.62424 2.71788,6.05155 5.43576,12.10307 8.15364,18.15457 3.81809,2.1979 4.19379,8.0355 6.66545,11.65699 1.95384,5.93804 4.74432,-5.07855 7.09468,-7.17615 2.49978,-4.87469 6.2975,-9.01333 8.0254,-14.26521 3.9743,0.25084 8.14984,-5.55003 11.04245,-3.37643 8.49841,0.8064 -3.18611,-5.15676 3.20449,-4.01378 3.32118,-1.18135 -1.39432,-7.20326 6.07586,-6.01699 3.25606,-2.40573 7.7701,-3.39117 11.00132,-4.37007 1.34533,-4.60329 3.1798,-6.82488 9.02536,-6.80348 1.78849,-2.61393 3.4018,-6.80124 8.79784,-7.97744 5.6685,-2.7609 10.74538,-7.31537 14.97348,-11.59876 -11.52139,-17.18233 -19.76782,-36.3666 -24.67752,-56.45125 -3.36318,-11.25649 -5.05946,-23.16881 -3.31967,-34.86113 0.6034,-10.52191 3.68669,-22.04335 -2.79649,-31.4273 -5.67706,-10.71977 -15.28475,-19.5435 -26.93158,-23.23601 -1.91206,6.53023 -6.29872,12.38884 -12.39608,15.5174 -3.61009,-3.26108 -6.32454,3.96311 -11.32149,1.87841 -3.94896,0.35555 -10.9058,6.63547 -11.21163,-0.18454 -1.94832,-8.73406 -6.06172,-16.52319 -10.79268,-24.0428 -5.66933,-9.29458 -11.22637,-18.81058 -12.92473,-29.7488 0.2076,-1.5049 -1.30956,-0.71444 -2.13624,-0.90094 z"
   id="wk13"
   style="stroke:#000000;stroke-width:1.00000004;stroke-opacity:1;stroke-miterlimit:4;stroke-dasharray:none" /><text
   x="197.59654"
   y="153.28735"
   id="wkt10"
   xml:space="preserve"
   style="font-size:22.8302021px;font-style:normal;font-variant:normal;font-weight:normal;font-stretch:normal;text-align:start;line-height:125%;letter-spacing:0px;word-spacing:0px;text-anchor:start;fill:#000000;fill-opacity:1;stroke:none;font-family:Ubuntu;-inkscape-font-specification:Ubuntu"><tspan
     x="197.59654"
     y="153.28735"
     id="tspan16082"
     style="font-size:22.8302021px">10</tspan></text>

<text
   x="253.37611"
   y="300.06531"
   id="wkt11"
   xml:space="preserve"
   style="font-size:22.8302021px;font-style:normal;font-variant:normal;font-weight:normal;font-stretch:normal;text-align:start;line-height:125%;letter-spacing:0px;word-spacing:0px;text-anchor:start;fill:#000000;fill-opacity:1;stroke:none;font-family:Ubuntu;-inkscape-font-specification:Ubuntu"><tspan
     x="253.37611"
     y="300.06531"
     id="tspan16082-9"
     style="font-size:22.8302021px">11</tspan></text>

<text
   x="78.607529"
   y="269.56897"
   id="wkt12"
   xml:space="preserve"
   style="font-size:22.8302021px;font-style:normal;font-variant:normal;font-weight:normal;font-stretch:normal;text-align:start;line-height:125%;letter-spacing:0px;word-spacing:0px;text-anchor:start;fill:#000000;fill-opacity:1;stroke:none;font-family:Ubuntu;-inkscape-font-specification:Ubuntu"><tspan
     x="78.607529"
     y="269.56897"
     id="tspan16082-7"
     style="font-size:22.8302021px">12</tspan></text>

<text
   x="143.05659"
   y="398.46704"
   id="wkt13"
   xml:space="preserve"
   style="font-size:22.8302021px;font-style:normal;font-variant:normal;font-weight:normal;font-stretch:normal;text-align:start;line-height:125%;letter-spacing:0px;word-spacing:0px;text-anchor:start;fill:#000000;fill-opacity:1;stroke:none;font-family:Ubuntu;-inkscape-font-specification:Ubuntu"><tspan
     x="143.05659"
     y="398.46704"
     id="tspan16082-4"
     style="font-size:22.8302021px">13</tspan></text>

</svg>